<svg width="1000" height="1000" viewBox="0 0 1000 1000" fill="none" xmlns="http://www.w3.org/2000/svg">
<path d="M932 881H808V894.187C808 928.325 835.758 956 870 956C904.242 956 932 928.325 932 894.187V881Z" fill="#D7E8F0"/>
<path d="M394.204 286L394 162.379C394.005 127.941 421.869 100.021 456.252 100H870" stroke="#CCDDE2" stroke-width="4.46"/>
<path d="M807.5 893V880.664V276.07V163" stroke="#CCDDE2" stroke-width="4.46"/>
<path d="M808 261.603H932V163.095C932 128.801 904.242 101 870 101C835.758 101 808 128.801 808 163.095V276" fill="#D7E8F0"/>
<path d="M807.484 261.129H932V162.476C932 128.132 904.126 100.29 869.742 100.29C835.358 100.29 807.484 128.132 807.484 162.476V275.548" stroke="#CCDDE2" stroke-width="4.46"/>
<path d="M807.464 880.161V892.497C807.47 926.843 835.346 954.683 869.732 954.683" stroke="#CCDDE2" stroke-width="4.46"/>
<path d="M485.006 954.693H456.039" stroke="#CCDDE2" stroke-width="4.46"/>
<path d="M807.484 880.151H932V892.488C931.989 926.838 904.113 954.682 869.722 954.693H569.125" stroke="#CCDDE2" stroke-width="4.46"/>
<path d="M737.8 373.746H637.209" stroke="#CCDDE2" stroke-width="4.46"/>
<path d="M737.8 412.701H637.209" stroke="#CCDDE2" stroke-width="4.46"/>
<path d="M737.8 451.667H637.209" stroke="#CCDDE2" stroke-width="4.46"/>
<path d="M737.8 490.623H637.209" stroke="#CCDDE2" stroke-width="4.46"/>
<path d="M737.8 529.588H637.209" stroke="#CCDDE2" stroke-width="4.46"/>
<path d="M737.8 568.544H637.209" stroke="#CCDDE2" stroke-width="4.46"/>
<path d="M737.8 698.696H637.209" stroke="#CCDDE2" stroke-width="4.46"/>
<path d="M737.8 716.862H637.209" stroke="#CCDDE2" stroke-width="4.46"/>
<path d="M737.8 735.028H637.209" stroke="#CCDDE2" stroke-width="4.46"/>
<path d="M737.8 753.194H637.209" stroke="#CCDDE2" stroke-width="4.46"/>
<rect x="592.188" y="322.667" width="188.936" height="483.272" rx="20.3" stroke="#CCDDE2" stroke-width="4.46"/>
<path d="M637.21 283.827H557.627" stroke="#CCDDE2" stroke-width="4.46"/>
<path d="M637.21 238.064H570.473" stroke="#CCDDE2" stroke-width="4.46"/>
<path d="M637.21 260.945H561.146" stroke="#CCDDE2" stroke-width="4.46"/>
<path d="M637.21 215.173H547.177" stroke="#CCDDE2" stroke-width="4.46"/>
<circle cx="710" cy="231" r="12" fill="#D7E8F0"/>
<path d="M679 281C679.298 264.347 693.089 251 710 251C726.911 251 740.702 264.347 741 281H679Z" fill="#D7E8F0"/>
<rect x="668" y="208" width="84" height="84" rx="9.18" stroke="#CCDDE2" stroke-width="4.46"/>
<path d="M713.018 839.901L722.13 858.45C722.624 859.454 723.573 860.151 724.674 860.318L745.075 863.295C746.363 863.472 747.436 864.376 747.836 865.62C748.236 866.864 747.892 868.229 746.951 869.131L732.219 883.576C731.421 884.359 731.059 885.487 731.252 886.591L734.724 907.019C734.943 908.296 734.421 909.588 733.377 910.35C732.334 911.112 730.951 911.212 729.81 910.608L711.596 900.988C710.61 900.462 709.429 900.462 708.443 900.988L690.238 910.608C689.096 911.209 687.714 911.108 686.67 910.348C685.626 909.587 685.101 908.297 685.314 907.019L688.797 886.591C688.987 885.487 688.626 884.36 687.829 883.576L673.049 869.082C672.108 868.18 671.764 866.815 672.164 865.572C672.564 864.328 673.637 863.424 674.925 863.246L695.239 860.269C696.342 860.104 697.296 859.407 697.793 858.402L706.943 839.901C707.513 838.737 708.691 838 709.981 838C711.27 838 712.448 838.737 713.018 839.901Z" fill="#D7E8F0"/>
<path d="M454.827 886.238H628.143" stroke="#CCDDE2" stroke-width="4.46"/>
<path d="M454.827 910.534H628.143" stroke="#CCDDE2" stroke-width="4.46"/>
<path fill-rule="evenodd" clip-rule="evenodd" d="M395.051 291.581C389.822 318.394 378.24 436.971 367.85 550.321C367.507 550.583 367.148 550.822 366.775 551.037C366.019 551.512 365.264 552.005 364.48 552.421C364.48 552.421 364.422 552.421 364.383 552.489C364.364 552.483 364.344 552.483 364.325 552.489L362.911 553.273L362.34 553.564C361.739 553.873 361.178 554.154 360.577 554.406L360.393 554.503C359.919 554.725 359.425 554.948 358.912 555.132L358.156 555.48C357.556 555.703 356.927 555.955 356.326 556.168L354.719 556.739C354.452 556.805 354.19 556.889 353.934 556.99C353.431 557.145 352.966 557.3 352.424 557.426C352.24 557.494 352.046 557.523 351.862 557.59C351.194 557.774 350.506 557.939 349.809 558.094C349.112 558.249 348.55 558.375 347.872 558.5C347.782 558.535 347.688 558.558 347.592 558.568C347.528 558.582 347.462 558.582 347.398 558.568C346.71 558.694 346.013 558.82 345.355 558.917C345.229 558.917 345.103 558.917 344.948 558.975C344.125 559.101 343.311 559.197 342.488 559.255C341.665 559.313 340.784 559.42 339.903 559.449C339.022 559.478 338.14 559.507 337.259 559.507C333.116 559.526 328.983 559.075 324.942 558.162C304.791 553.518 288.874 538.095 283.603 518.107C283.39 517.139 283.167 516.171 282.973 515.203C282.213 511.548 281.833 507.824 281.84 504.09C281.846 507.352 281.564 510.607 280.998 513.819C280.746 515.261 280.427 516.655 280.029 518.068C273.666 542.482 251.612 559.519 226.373 559.519C201.134 559.519 179.08 542.482 172.716 518.068C172.142 515.875 171.712 513.647 171.429 511.399C171.109 508.976 170.951 506.534 170.954 504.09C170.943 506.596 170.775 509.098 170.451 511.583C170.147 513.767 169.717 515.933 169.163 518.068C162.982 541.618 142.173 558.395 117.84 559.449C117.055 559.449 116.271 559.507 115.487 559.507C84.9175 559.475 60.1472 534.706 60.1259 504.148V504.061H60V450.939C59.9923 438.675 64.8624 426.912 73.5374 418.24C82.2124 409.569 93.9804 404.701 106.249 404.708H327.527C333.41 404.708 338.179 399.941 338.179 394.06C338.179 388.18 333.41 383.413 327.527 383.413H236.502C226.082 383.407 217.627 374.982 217.59 364.566V310.437C217.611 300.032 226.044 291.602 236.454 291.581L395.051 291.581Z" stroke="#CCDDE2" stroke-width="4.46"/>
<path d="M671.806 954.48L114.625 955.632C104.227 955.606 95.8029 947.189 95.771 936.795V555.916C102.084 558.329 108.786 559.563 115.545 559.555C116.329 559.555 117.104 559.555 117.888 559.497C132.325 558.922 145.96 552.712 155.867 542.2" stroke="#CCDDE2" stroke-width="4.46"/>
<path d="M290.11 533.246C297.924 545.885 310.481 554.867 324.971 558.181" stroke="#CCDDE2" stroke-width="4.46"/>
<path d="M358.389 878.339H249.555" stroke="#CCDDE2" stroke-width="4.46"/>
<path d="M132.171 877.758C123.789 875.646 117.91 868.115 117.898 859.473V559.517C132.331 558.913 145.956 552.695 155.867 542.19" stroke="#CCDDE2" stroke-width="4.46"/>
<path d="M290.11 533.246C297.924 545.885 310.481 554.867 324.971 558.181" stroke="#CCDDE2" stroke-width="4.46"/>
<path d="M183.949 754.322C175.95 747.181 171.371 736.972 171.361 726.251V634.293C171.43 613.472 188.298 596.611 209.127 596.542H296.104C316.933 596.611 333.801 613.472 333.87 634.293V726.251C333.801 747.071 316.933 763.933 296.104 764.002H243.629" stroke="#CCDDE2" stroke-width="4.46"/>
<path fill-rule="evenodd" clip-rule="evenodd" d="M568.551 646.393C571.301 639.781 573.954 634.554 575.523 631.612C576.325 630.118 575.782 628.258 574.303 627.43L557.666 620.422C556.35 619.678 554.739 619.689 553.433 620.451C552.127 621.212 551.324 622.609 551.324 624.12C551.324 638.639 547.16 652.317 532.634 652.317C518.109 652.317 513.935 638.639 513.935 624.12V623.49C513.942 622.036 513.203 620.679 511.979 619.895C510.754 619.11 509.212 619.006 507.893 619.618L490.918 625.92C490.068 626.31 489.439 627.06 489.202 627.964C488.966 628.868 489.148 629.83 489.698 630.586L489.93 630.905C508.47 656.79 511.732 690.614 498.48 719.562L492.486 732.727C491.627 734.618 491.788 736.816 492.914 738.562C494.04 740.308 495.976 741.363 498.054 741.361H571.891C574.004 741.359 575.966 740.267 577.08 738.472C578.193 736.677 578.3 734.435 577.363 732.543L571.097 719.901C559.66 696.918 558.731 670.112 568.551 646.393V646.393Z" stroke="#CCDDE2" stroke-width="4.46"/>
<path d="M506.344 688.325H562.189" stroke="#CCDDE2" stroke-width="4.46"/>
<path d="M518.932 688.335C519.194 697.841 519.029 722.311 511.186 741.322" stroke="#CCDDE2" stroke-width="4.46"/>
<path d="M557.279 741.322C549.445 722.311 549.29 697.841 549.532 688.335" stroke="#CCDDE2" stroke-width="4.46"/>
<path d="M534.271 741.322V688.335" stroke="#CCDDE2" stroke-width="4.46"/>
<path fill-rule="evenodd" clip-rule="evenodd" d="M305.362 663.874L287.302 674.319L282.315 668.162L286.392 732.775C286.514 734.995 285.717 737.169 284.187 738.784C282.658 740.399 280.531 741.313 278.306 741.312H224.194C221.957 741.312 219.819 740.385 218.29 738.753C216.76 737.121 215.974 734.929 216.118 732.697L220.96 666.236L216.021 672.383L199.879 661.938C199.879 661.813 199.879 661.696 199.879 661.58C200.566 647.525 214.617 628.998 228.697 628.998H238.7C238.99 629.56 239.246 630.138 239.465 630.731C243.91 642.772 262.706 642.347 266.482 630.276C266.618 629.831 266.763 629.395 266.918 628.998H273.241C289.016 628.998 302.757 647.864 305.275 663.419C305.323 663.594 305.342 663.739 305.362 663.874V663.874Z" stroke="#CCDDE2" stroke-width="4.46"/>
<path fill-rule="evenodd" clip-rule="evenodd" d="M250.63 340.606C250.63 347.8 255.078 353.836 263.161 353.836H263.199C271.204 353.836 276.234 348.533 276.234 340.182C276.234 333.258 271.979 327.058 263.587 327.058C255.582 327.058 250.63 333.065 250.63 340.606ZM268.84 340.413C268.84 345.1 266.872 348.34 263.509 348.34H263.432C260.069 348.34 258.015 344.955 258.015 340.452C258.015 335.949 260.03 332.564 263.432 332.564C266.833 332.564 268.84 335.949 268.84 340.413Z" fill="#D7E8F0"/>
<path d="M279.936 350.509V332.574C279.936 331.222 280.476 329.925 281.438 328.97C282.4 328.015 283.704 327.48 285.063 327.482C286.977 327.481 288.732 328.546 289.608 330.24L292.312 335.447C293.882 338.38 295.252 341.414 296.411 344.531H296.518C296.136 340.911 295.958 337.273 295.985 333.634V330.385C295.985 328.787 297.286 327.492 298.892 327.492H299.425C301.031 327.492 302.332 328.787 302.332 330.385V350.509C302.332 352.107 301.031 353.402 299.425 353.402H296.808C295.712 353.404 294.708 352.793 294.211 351.821L290.577 344.781C289.143 342.043 287.447 338.543 286.206 335.428H286.051C286.245 338.928 286.322 342.814 286.322 346.999V350.48C286.322 352.078 285.021 353.373 283.415 353.373H282.872C282.101 353.381 281.359 353.084 280.808 352.546C280.257 352.009 279.944 351.277 279.936 350.509H279.936Z" fill="#D7E8F0"/>
<path d="M310.085 327.482H311.238C312.844 327.482 314.146 328.777 314.146 330.375V344.695C314.146 346.292 315.447 347.588 317.053 347.588H321.23C322.836 347.588 324.137 348.883 324.137 350.48C324.137 352.078 322.836 353.373 321.23 353.373H310.085C308.479 353.373 307.178 352.078 307.178 350.48V330.385C307.175 329.616 307.48 328.877 308.026 328.333C308.571 327.788 309.312 327.482 310.085 327.482V327.482Z" fill="#D7E8F0"/>
<path d="M334.623 330.963V349.931C334.623 351.859 333.052 353.421 331.115 353.421C329.181 353.416 327.616 351.855 327.616 349.931V330.963C327.616 330.04 327.985 329.155 328.641 328.502C329.297 327.849 330.187 327.482 331.115 327.482C333.048 327.482 334.618 329.039 334.623 330.963Z" fill="#D7E8F0"/>
<path d="M339.41 350.239V332.024C339.41 330.814 339.895 329.655 340.757 328.802C341.62 327.95 342.788 327.474 344.004 327.482H344.905C346.612 327.482 348.175 328.431 348.956 329.941L351.815 335.447C353.381 338.382 354.751 341.416 355.914 344.531H356.03C355.645 340.911 355.464 337.274 355.488 333.634V330.655C355.488 329.812 355.825 329.003 356.425 328.408C357.025 327.813 357.839 327.48 358.686 327.482C359.531 327.482 360.342 327.816 360.94 328.411C361.538 329.006 361.874 329.813 361.874 330.655V348.88C361.874 351.388 359.831 353.421 357.31 353.421C355.598 353.421 354.03 352.468 353.249 350.953L350.08 344.801C348.646 342.062 346.94 338.562 345.709 335.447H345.554C345.748 338.948 345.826 342.834 345.826 347.019V350.23C345.826 351.987 344.394 353.412 342.628 353.412C341.778 353.417 340.961 353.085 340.357 352.49C339.753 351.895 339.413 351.085 339.41 350.239Z" fill="#D7E8F0"/>
<path d="M380.21 342.949H376.072C375.435 342.949 374.825 343.202 374.376 343.65C373.927 344.099 373.675 344.707 373.678 345.341C373.678 346.656 374.75 347.723 376.072 347.723H381.334C382.892 347.723 384.154 348.979 384.154 350.529V350.606C384.157 351.352 383.861 352.068 383.332 352.596C382.802 353.124 382.084 353.421 381.334 353.421H369.075C368.437 353.421 367.826 353.169 367.375 352.721C366.925 352.273 366.671 351.664 366.671 351.03V329.488C366.671 328.854 366.925 328.245 367.375 327.797C367.826 327.348 368.437 327.096 369.075 327.096H380.83C381.578 327.096 382.295 327.392 382.824 327.918C383.353 328.445 383.65 329.158 383.65 329.903V329.989C383.645 331.535 382.384 332.786 380.83 332.786H375.985C375.381 332.786 374.801 333.024 374.374 333.449C373.947 333.874 373.707 334.451 373.707 335.052C373.707 335.653 373.947 336.229 374.374 336.654C374.801 337.079 375.381 337.318 375.985 337.318H380.239C380.989 337.318 381.707 337.615 382.237 338.143C382.766 338.671 383.062 339.388 383.059 340.134C383.062 340.885 382.762 341.605 382.226 342.134C381.691 342.663 380.965 342.957 380.21 342.949Z" fill="#D7E8F0"/>
<path d="M395.367 349.68C395.552 348.912 396.046 348.253 396.732 347.856C397.419 347.459 398.238 347.358 399.001 347.578C400.264 347.922 401.567 348.1 402.877 348.108C405.281 348.108 406.434 347.298 406.434 345.987C406.434 344.675 405.281 344.058 402.335 343.026C397.935 341.455 394.989 339.063 394.989 335.216C394.989 330.635 398.865 327.096 405.475 327.096C406.901 327.087 408.324 327.229 409.719 327.521C410.474 327.695 411.124 328.168 411.519 328.831C411.914 329.494 412.02 330.288 411.813 331.031C411.44 332.521 409.935 333.44 408.43 333.094C407.436 332.867 406.418 332.754 405.397 332.757C403.265 332.757 402.112 333.519 402.112 334.685C402.112 335.997 403.498 336.498 406.783 337.723C411.464 339.459 413.567 341.927 413.567 345.543C413.567 349.998 410.078 353.807 402.461 353.807C400.748 353.8 399.042 353.583 397.382 353.161C395.915 352.731 395.034 351.243 395.367 349.757V349.68Z" fill="#D7E8F0"/>
<path d="M419.498 333.335H418.723C417.117 333.335 415.815 332.04 415.815 330.443C415.815 328.845 417.117 327.55 418.723 327.55H433.259C434.865 327.55 436.167 328.845 436.167 330.443C436.167 332.04 434.865 333.335 433.259 333.335H432.368C430.762 333.335 429.461 334.631 429.461 336.228V350.461C429.461 352.059 428.159 353.354 426.553 353.354H425.41C423.804 353.354 422.502 352.059 422.502 350.461V336.257C422.511 335.468 422.195 334.71 421.627 334.158C421.06 333.606 420.291 333.309 419.498 333.335Z" fill="#D7E8F0"/>
<path fill-rule="evenodd" clip-rule="evenodd" d="M437.165 340.606C437.165 347.8 441.613 353.836 449.695 353.836H449.734C457.739 353.836 462.769 348.533 462.769 340.182C462.769 333.258 458.514 327.058 450.122 327.058C442.117 327.058 437.165 333.065 437.165 340.606ZM455.384 340.413C455.384 345.1 453.407 348.34 450.044 348.34H449.967C446.604 348.34 444.549 344.955 444.549 340.452C444.549 335.949 446.565 332.564 449.967 332.564C453.368 332.564 455.384 335.949 455.384 340.413Z" fill="#D7E8F0"/>
<path fill-rule="evenodd" clip-rule="evenodd" d="M468.729 327.588C467.446 327.722 466.474 328.802 466.481 330.086L466.529 349.969C466.526 350.884 466.89 351.762 467.539 352.41C468.188 353.057 469.069 353.421 469.989 353.421C471.865 353.369 473.358 351.837 473.352 349.969V343.682H474.476C476.637 343.682 477.606 344.338 478.304 347.414C478.662 348.841 478.982 350.008 479.273 350.972C479.708 352.431 481.058 353.429 482.587 353.421H482.655C483.728 353.421 484.74 352.925 485.394 352.079C486.049 351.234 486.272 350.134 485.998 349.101C485.727 348.041 485.436 346.951 485.155 345.987C484.506 343.759 483.537 342.101 481.831 341.339V341.223C484.443 340.205 486.193 337.736 486.28 334.946C486.402 332.77 485.451 330.672 483.731 329.324C481.754 327.829 478.895 327.289 474.912 327.289C472.605 327.289 470.464 327.415 468.729 327.588ZM475.222 338.677H473.4V332.602C474.181 332.474 474.973 332.422 475.765 332.448C478.081 332.448 479.36 333.557 479.36 335.486C479.36 337.414 477.848 338.677 475.222 338.677Z" fill="#D7E8F0"/>
<path d="M503.907 342.949H499.74C499.103 342.949 498.492 343.201 498.041 343.65C497.59 344.098 497.337 344.706 497.337 345.341C497.342 346.658 498.417 347.722 499.74 347.722H504.993C506.539 347.738 507.784 348.99 507.784 350.529V350.606C507.784 352.161 506.517 353.421 504.954 353.421H492.734C492.097 353.421 491.487 353.169 491.038 352.72C490.588 352.272 490.337 351.663 490.34 351.03V330.211C490.337 329.424 490.65 328.669 491.208 328.112C491.766 327.554 492.524 327.241 493.315 327.241H504.45C506.013 327.241 507.28 328.502 507.28 330.057V330.134C507.28 330.88 506.982 331.595 506.451 332.122C505.92 332.648 505.2 332.943 504.45 332.94H499.546C498.326 332.94 497.337 333.924 497.337 335.139C497.337 335.721 497.57 336.279 497.985 336.69C498.399 337.101 498.961 337.33 499.546 337.327H503.907C505.467 337.333 506.728 338.592 506.728 340.143C506.728 341.693 505.465 342.949 503.907 342.949Z" fill="#D7E8F0"/>
<path d="M190.72 800.651C193.758 798.19 197.292 795.924 199.738 793.202C206.591 785.549 203.951 775.765 208.348 767.396C213.697 757.156 230.528 750.008 247.059 750.928C245.494 755.758 244.42 760.733 243.856 765.778C243.371 770.263 244.545 775.261 243.254 779.601C241.148 786.595 229.917 790.828 228.548 798.006C227.345 804.351 234.78 810.28 233.547 816.731C232.247 823.657 221.579 827.484 217.657 833.606C214.454 838.585 215.958 844.261 214.298 849.579C212.289 855.973 205.319 861.63 196.185 864.284L195.282 864.546C191.926 861.678 189.046 858.297 186.75 854.529" stroke="#CCDDE2" stroke-width="4.46"/>
<path d="M236.964 758.987C212.308 784.086 200.709 837.006 196.195 864.304C195.826 866.609 195.496 868.721 195.224 870.619" stroke="#CCDDE2" stroke-width="4.46"/>
<path fill-rule="evenodd" clip-rule="evenodd" d="M239.235 886.002L227.888 949.297C227.238 952.965 224.04 955.637 220.307 955.632H161.007C157.239 955.631 154.024 952.91 153.407 949.2L142.952 886.002H239.235Z" stroke="#CCDDE2" stroke-width="4.46"/>
<path fill-rule="evenodd" clip-rule="evenodd" d="M250.02 878.941C249.692 882.93 246.353 886.001 242.342 886.002H140.06C136.09 886.001 132.771 882.99 132.391 879.047C132.186 876.891 132.902 874.749 134.361 873.147C135.821 871.544 137.89 870.63 140.06 870.629H242.342C244.494 870.63 246.547 871.529 248.005 873.107C249.463 874.686 250.194 876.801 250.02 878.941V878.941Z" stroke="#CCDDE2" stroke-width="4.46"/>
<path d="M162.279 785.917C171.336 813.302 176.548 843.738 179.208 863.112C179.487 863.225 179.772 863.322 180.062 863.403C182.68 860.748 184.932 857.757 186.76 854.51C189.013 850.75 190.846 846.754 192.225 842.595C194.166 836.396 190.75 830.002 189.934 823.706C188.963 816.063 191.876 808.023 190.75 800.602C190.75 800.38 190.672 800.128 190.604 799.866C190.604 799.76 190.604 799.605 190.526 799.459C190.151 797.565 189.437 795.754 188.42 794.112C185.352 789.094 179.392 785.51 175.801 780.715C169.22 771.861 171.734 760.537 167.521 750.831C166.262 747.979 164.481 745.387 162.269 743.188C154.873 735.593 142.525 730.905 130.324 731.748C131.847 737.381 132.887 743.133 133.43 748.942C133.867 754.154 132.76 759.946 133.983 764.964C136.012 773.082 146.816 777.983 148.107 786.275C149.291 793.618 142.157 800.525 143.302 807.974C144.593 816.014 154.795 820.451 158.571 827.532C161.638 833.286 160.202 839.931 161.823 846.053C161.94 846.544 162.09 847.026 162.269 847.497C162.269 847.497 165.269 858.966 179.198 863.102" stroke="#CCDDE2" stroke-width="4.46"/>
<path d="M180.169 870.6C179.916 868.353 179.586 865.883 179.198 863.151C176.538 843.777 171.326 813.341 162.269 785.956C156.532 768.577 149.252 752.42 140.05 741.125" stroke="#CCDDE2" stroke-width="4.46"/>
<path d="M175.82 780.744C175.82 780.744 177.441 755.481 191.099 747.809C204.757 740.137 204.466 783.195 204.466 783.195" stroke="#CCDDE2" stroke-width="4.46"/>
<path d="M190.72 800.651C190.72 800.651 187.925 786.198 192.817 771.987" stroke="#CCDDE2" stroke-width="4.46"/>
<rect x="95.9126" y="430.184" width="263.253" height="35.8319" rx="15.5" stroke="#CCDDE2" stroke-width="4.46"/>
<path d="M493 242C493 242 454.968 242.406 430.665 278.806C406.362 315.207 397.155 359.168 398.707 412.516L396 524.299C396 524.299 436.331 529.568 449.933 511.218C449.933 511.218 452.96 496.02 475.653 483.035L493 242Z" fill="#3FBDF1"/>
<path d="M466.636 758L480 770.11V777.063L476.107 778.446C476.107 778.446 457.613 780.414 459.083 776.932C460.553 773.451 466.636 758 466.636 758Z" fill="#2E2E2E"/>
<path d="M416 873.231L380.168 953.995H289.135C284.486 954.122 280.134 951.729 277.772 947.747C275.409 943.764 275.409 938.82 277.772 934.837C280.134 930.854 284.486 928.461 289.135 928.589C316.792 928.598 340.572 909.109 345.837 882.117L347.58 873.231C347.687 872.711 416 873.231 416 873.231Z" fill="black"/>
<path d="M663 869.723L616.761 948.211C614.55 952.368 610.235 954.976 605.526 955C600.817 955.024 596.476 952.46 594.223 948.325C591.97 944.191 592.169 939.153 594.742 935.209C608.8 911.365 604 880.904 583.291 862.539C580.082 859.698 577.474 857.39 576 856.101L623.79 815L663 869.723Z" fill="black"/>
<path d="M672 805H478.967V540.456H478.918C476.552 500.33 460.217 494.99 460.217 494.99L468.947 488.112C444.163 373.635 466.037 289.803 489.317 241.764C496.144 227.472 504.378 213.891 513.897 201.222C514.004 201.077 514.12 200.961 514.208 200.826C516.077 198.382 519.299 197.396 522.221 198.373C525.143 199.351 527.116 202.076 527.128 205.15L527.245 236.686C566.831 235.051 590.063 279.985 599.608 312.391C609.744 346.868 609.492 384.585 602.081 419.265C599.222 432.834 594.72 446.006 588.676 458.492L672 805Z" fill="#2E2E2E"/>
<path d="M450.662 206L407.565 258.175L423.655 258.087L397.212 286.847C389.794 289.181 348 779 348 779H366.598L415.868 526.445C409.456 527.226 402.962 527.007 396.619 525.797L399.409 387.139C401.353 342.643 419.3 272.032 464.088 249.905L464.253 249.818C465.332 228.059 471 213.805 471 213.805C459.441 216.371 450.662 206 450.662 206V206Z" fill="#2E2E2E"/>
<path d="M415.366 526.446L347.77 874.24L346.027 883.175C340.746 910.3 316.975 929.876 289.333 929.863C284.685 929.735 280.334 932.141 277.972 936.146C275.61 940.151 275.61 945.122 277.972 949.127C280.334 953.131 284.685 955.537 289.333 955.409H380.353L416.18 874.201L479.448 730.865" stroke="black" stroke-width="4.46"/>
<path d="M479.438 542.08V806.788H672.187L588.991 460.107" stroke="black" stroke-width="4.46"/>
<path d="M527.65 238.089L490.274 271.002L527.65 270.218L528.725 402.945C528.894 425.813 518.945 447.586 501.545 462.43L470.908 488.567C435.575 329.249 488.753 236.172 514.646 202.195C516.509 199.743 519.729 198.754 522.647 199.736C525.566 200.718 527.532 203.453 527.534 206.531L527.65 238.089C567.175 236.453 590.366 281.418 599.894 313.847C610.013 348.348 609.751 386.091 602.363 420.795C597.841 441.947 589.572 462.663 577.062 480.416C565.374 496.94 549.891 510.173 535.135 523.919C529.906 528.76 524.483 533.387 518.887 537.83L479.419 568.43" stroke="black" stroke-width="4.46"/>
<path d="M519.073 179.24C516.056 183.507 511.147 186.029 505.925 185.995C503.699 186.026 501.473 185.904 499.264 185.629C496.69 185.291 495.292 184.586 497.056 183.303C497.614 182.886 498.136 182.425 498.618 181.923C501.73 178.708 503.907 174.704 504.913 170.342C506.012 165.468 504.913 160.691 501.115 158.076C500.206 157.454 499.204 156.981 498.145 156.677C496.435 156.15 494.668 155.826 492.882 155.712C491.986 155.654 491.06 155.625 490.144 155.625C489.181 149.748 486.983 141.477 482.5 138.032C480.272 136.316 477.28 135.971 474.721 137.134C467.973 139.711 457.957 141.699 452.617 140.666C452.287 140.33 452.071 139.897 452 139.431C452.744 137.568 453.604 135.754 454.574 133.998C455.613 132.194 456.772 130.463 458.044 128.815C467.616 116.607 484.351 110.865 499.495 113.722C501.912 114.165 504.277 114.857 506.551 115.787C513.511 119.512 518.389 125.438 521.551 132.598C530.236 156.58 524.443 171.539 519.073 179.24Z" fill="#3FBDF1"/>
<path d="M519.357 806.648L576.393 857.162C577.885 858.451 580.473 860.757 583.682 863.596C604.377 881.931 609.194 912.345 595.178 936.174C591.597 942.264 593.632 950.104 599.724 953.684C605.816 957.264 613.658 955.23 617.24 949.139L663.419 870.728L624.171 816.067L617.385 806.677" stroke="black" stroke-width="4.46"/>
<path d="M479.906 771.773L466.849 760.204" stroke="black" stroke-width="4.46"/>
<path d="M450.487 205.344L407.497 257.573L423.54 257.476L397.193 286.246C396.757 286.372 396.224 288.319 395.497 291.847C390.263 318.688 378.67 437.391 368.269 550.861C357.558 667.567 348.097 778.741 348.097 778.741H366.66" stroke="black" stroke-width="4.46"/>
<path d="M479.906 778.741H458.697" stroke="black" stroke-width="4.46"/>
<path d="M479.906 541.655C463.931 541.287 456.361 534.62 452.978 526.975C448.228 516.141 451.941 503.428 461.227 496.112L471.415 488.098" stroke="black" stroke-width="4.46"/>
<path d="M450.477 514.455C450.477 514.455 423.549 530.773 396.592 525.366L399.374 386.615C401.71 334.153 426.069 245.412 490.336 242.457" stroke="black" stroke-width="4.46"/>
<path d="M483.143 208.338C483.143 208.338 445.524 231.914 443.401 177.766C442.761 161.196 443.488 141.564 454.238 127.921C463.864 115.653 480.691 109.888 495.919 112.756C508.52 115.149 516.546 122.882 521.073 133.105" stroke="black" stroke-width="4.46"/>
<path d="M479.906 542.052C479.921 541.92 479.921 541.787 479.906 541.655C477.55 501.461 461.227 496.112 461.227 496.112" stroke="black" stroke-width="2.97"/>
<path d="M469.427 213.454L463.805 249.288" stroke="black" stroke-width="4.46"/>
<path d="M450.749 133.124C440.619 144.83 462.313 142.155 474.012 137.679C484.113 133.803 488.077 147.727 489.522 156.361" stroke="black" stroke-width="4.46"/>
<path d="M514.86 183.774V201.846" stroke="black" stroke-width="4.46"/>
<ellipse cx="456.109" cy="167.747" rx="5.93227" ry="13.5369" stroke="black" stroke-width="2.97"/>
<ellipse cx="439.174" cy="167.747" rx="5.93227" ry="13.5369" stroke="black" stroke-width="2.97"/>
<ellipse cx="456" cy="167.5" rx="6" ry="13.5" fill="black"/>
<ellipse cx="439" cy="167.5" rx="6" ry="13.5" fill="black"/>
<path d="M460.82 162.507C466.722 160.559 472.755 159.031 478.873 157.933C484.694 156.966 491.213 156.124 496.936 157.875C503.164 159.809 505.104 165.612 503.727 171.579C502.735 175.981 500.558 180.03 497.431 183.291C496.94 183.801 496.408 184.27 495.84 184.693C492.775 186.937 499.168 187.392 504.765 187.392C510.022 187.424 514.965 184.897 518.007 180.622C523.41 172.885 529.24 157.913 520.48 133.793" stroke="black" stroke-width="4.46"/>
<path d="M494.617 157.314C490.834 159.171 488.569 163.142 488.904 167.333" stroke="black" stroke-width="4.46"/>
<path d="M874.913 955.762H129.388" stroke="black" stroke-width="4.46"/>
</svg>
