<svg width="1000" height="1000" viewBox="0 0 1000 1000" fill="none" xmlns="http://www.w3.org/2000/svg">
<path d="M235.4 425.696C235.4 425.696 182.647 269.602 366.651 288.653C550.656 307.704 462.74 238.614 532.271 195.739C601.802 152.864 806.671 286.252 720.961 414.907C635.25 543.561 857.935 425.873 904.387 619.344C933.052 738.738 861.934 826.614 803.261 876.428" stroke="#CCDDE2" stroke-width="5.47"/>
<path fill-rule="evenodd" clip-rule="evenodd" d="M678.87 549.882C758.416 575.528 807.377 647.186 821.205 727.262C826.958 760.788 827.389 795.96 820.127 829.339C816.021 848.076 810.082 869.156 796.293 883.239C790.51 889.168 782.891 892.967 774.674 894.019C776.682 889.963 777.732 885.5 777.742 880.975C777.802 864.313 764.386 850.735 747.724 850.595L728.575 850.487L699.91 850.34C699.058 850.232 698.156 850.232 697.264 850.232H677.968L661.71 850.164L573.333 849.693C572.197 849.693 571.011 849.772 569.835 849.879L570.016 849.906C570.707 850.005 571.431 850.109 572.089 850.271C571.331 850.271 570.582 850.334 569.799 850.399L569.688 850.409C584.653 852.248 596.004 864.784 596.354 879.858V880.426C596.373 880.795 596.373 881.165 596.354 881.533C595.468 896.213 584.195 908.151 569.59 909.875C570.36 909.975 571.136 910.034 571.912 910.051C571.191 910.214 570.462 910.335 569.727 910.414L569.864 910.427C571 910.53 572.095 910.63 573.235 910.63H572.128C556.438 910.63 546.785 920.273 546.785 932.033C546.797 937.716 549.059 943.164 553.077 947.184C556.967 951.084 562.328 953.475 572.128 953.475H451.333L430.185 899.154L355.568 707.76H191.3C174.599 707.77 158.837 700.037 148.623 686.823C138.409 673.61 134.897 656.407 139.115 640.248L178.795 529.321C179.022 529.956 179.267 530.753 179.55 531.676C182.704 541.949 190.684 567.945 233.244 562.504C239.928 592.933 249.786 622.578 264.947 649.773C270.268 659.348 277.089 669.824 287.281 674.822C288.321 675.326 289.395 675.755 290.496 676.106C300.717 679.418 313.3 676.713 322.983 673.538C346.463 665.865 370.366 656.633 391.808 644.305C410.369 633.701 432.458 616.463 430.028 593.521V593.198C428.908 580.286 420.187 569.29 407.87 565.258C401.572 575.608 394.035 585.151 385.428 593.678C378.527 586.941 372.961 578.961 369.023 570.158C366.209 563.844 363.985 557.282 362.379 550.558C408.713 539.043 466.533 528.929 527.999 528.43C520.747 535.113 515.592 544.688 517.101 554.801C518.424 563.778 525.745 572.098 533.291 576.822C545.825 584.682 562.553 584.035 576.058 579.037C589.288 574.176 600.715 564.846 609.005 553.488C612.916 548.001 615.521 541.693 616.62 535.045V534.937C637.713 538.362 658.521 543.358 678.87 549.882ZM552.92 752.84C552.92 752.84 581.271 755.143 597.922 729.516C614.66 703.928 600.244 677.223 600.244 677.223C600.244 677.223 552.881 637.161 544.776 632.555C536.672 627.949 494.737 604.644 467.836 610.505C440.935 616.365 467.444 638.562 468.875 638.846C470.306 639.13 500.069 646.784 500.069 646.784L489.779 652.213C489.779 652.213 481.066 657.143 478.881 672.009C478.676 673.406 478.422 674.92 478.151 676.533C475.54 692.087 471.386 716.836 494.561 734.328C520.139 753.634 522.716 738.738 523.961 728.938C523.961 728.938 539.592 735.611 545.08 745.372C550.568 755.133 552.92 752.84 552.92 752.84Z" fill="#353642"/>
<path d="M233.205 562.524C233.205 562.524 255.637 559.8 264.036 543.786L256.715 584.858C256.715 584.858 345.954 554.478 362.32 550.558C362.32 550.558 367.592 584.554 388.584 593.678L410.242 566.14C410.242 566.14 437.398 573 429.969 610.005C422.541 647.01 319.798 677.939 302.373 677.223C284.949 676.508 266.192 665.787 246.984 608.172L233.205 562.524Z" fill="#353642"/>
<path d="M269.749 471.031C275.433 480.282 281.146 489.514 287.046 498.628C290.682 504.243 297.307 512.25 290.26 518.12C287.968 519.878 285.197 520.903 282.313 521.06C277.785 521.462 273.032 520.374 270.278 516.484L256.558 493.748C250.887 484.345 238.946 480.873 229.118 485.77" stroke="black" stroke-width="5.47"/>
<path d="M321.64 500.98C325.227 509.506 322.796 515.004 318.602 517.768C311.742 522.266 302.559 520.11 297.698 513.544L269.798 471.08" stroke="black" stroke-width="5.47"/>
<path d="M293.367 458.683C303.52 471.031 316.328 493.963 323.414 503.538C330.499 513.113 341.455 507.34 341.455 507.34C350.354 502.548 348.845 494.6 344.954 484.947C335.37 461.251 321.689 445.493 306.43 435.163C259.145 403.176 210.635 426.775 196.2 481.988L139.115 640.248C134.897 656.408 138.409 673.61 148.622 686.824C158.836 700.038 174.599 707.77 191.3 707.76H355.567L451.362 953.485" stroke="black" stroke-width="5.47"/>
<path d="M352.02 474.079C363.78 470.002 363.241 451.245 346.552 444.914C328.118 437.917 295.386 428.019 287.164 425.549C287.113 425.51 287.051 425.486 286.987 425.481C286.409 425.304 286.007 425.157 285.694 425.089L285.233 424.942" stroke="black" stroke-width="5.47"/>
<path d="M525.774 661.622C515.484 649.254 487.319 642.247 468.934 638.856C462.586 637.664 457.792 632.418 457.174 625.989C456.961 623.878 457.205 621.745 457.889 619.737C460.145 613.389 466.447 609.406 473.148 610.093C504.508 613.269 536.848 623.137 560.77 644.393C560.77 644.393 676.733 732.887 690.58 741.502C696.294 744.971 701.625 740.874 697.754 735.426L696.539 733.348C689.723 721.65 681.656 710.728 672.48 700.773" stroke="black" stroke-width="5.47"/>
<path d="M527.92 528.42C382.076 529.635 256.715 584.849 256.715 584.849L269.229 514.7" stroke="black" stroke-width="5.47"/>
<path d="M754.437 910.199C754.437 910.199 738.552 906.602 734.328 919.322C730.104 932.043 725.694 952.28 756.064 953.475C786.434 954.671 768.598 948.703 766.844 938.873C765.09 929.044 754.437 910.199 754.437 910.199Z" fill="#353642"/>
<path d="M511.76 677.762C511.76 677.762 494.62 664.767 479.185 677.939C478.535 678.511 477.968 679.17 477.499 679.899" stroke="black" stroke-width="5.47"/>
<g opacity="0.77">
<path d="M297.64 513.494C302.54 520.07 311.712 522.216 318.543 517.708C322.688 514.964 325.119 509.496 321.62 501.048C322.257 501.979 322.835 502.803 323.404 503.557C330.479 513.171 341.446 507.379 341.446 507.379C350.344 502.587 348.845 494.639 344.954 484.976C341.147 475.406 336.152 466.352 330.087 458.026C334.056 454.312 338.77 450.559 343.739 452.205C349.099 453.989 350.599 460.712 351.206 466.317C351.491 468.924 351.775 471.501 352.059 474.108L356.351 512.485C357.782 525.225 359.213 538.151 362.32 550.587C363.926 557.312 366.15 563.873 368.964 570.187C372.902 578.991 378.468 586.971 385.369 593.707C393.976 585.181 401.512 575.637 407.811 565.287C420.128 569.32 428.849 580.315 429.969 593.227V593.551C432.399 616.492 410.31 633.731 391.749 644.334C370.307 656.663 346.404 665.894 322.924 673.568C313.241 676.743 300.658 679.448 290.437 676.135C289.336 675.785 288.262 675.356 287.222 674.851C277.03 669.853 270.209 659.377 264.888 649.803C239.408 603.988 228.824 551.381 223.248 499.284C234.4 497.746 245.513 496.031 256.489 493.669C256.489 493.669 256.489 493.747 256.558 493.777L269.21 514.759L270.249 516.503C272.993 520.423 277.746 521.472 282.283 521.08C285.168 520.937 287.939 519.911 290.221 518.14C297.257 512.26 290.652 504.282 287.007 498.667" fill="white"/>
<path d="M297.64 513.494C302.54 520.07 311.712 522.216 318.543 517.708C322.688 514.964 325.119 509.496 321.62 501.048C322.257 501.979 322.835 502.803 323.404 503.557C330.479 513.171 341.446 507.379 341.446 507.379C350.344 502.587 348.845 494.639 344.954 484.976C341.147 475.406 336.152 466.352 330.087 458.026C334.056 454.312 338.77 450.559 343.739 452.205C349.099 453.989 350.599 460.712 351.206 466.317C351.491 468.924 351.775 471.501 352.059 474.108L356.351 512.485C357.782 525.225 359.213 538.151 362.32 550.587C363.926 557.312 366.15 563.873 368.964 570.187C372.902 578.991 378.468 586.971 385.369 593.707C393.976 585.181 401.512 575.637 407.811 565.287C420.128 569.32 428.849 580.315 429.969 593.227V593.551C432.399 616.492 410.31 633.731 391.749 644.334C370.307 656.663 346.404 665.894 322.924 673.568C313.241 676.743 300.658 679.448 290.437 676.135C289.336 675.785 288.262 675.356 287.222 674.851C277.03 669.853 270.209 659.377 264.888 649.803C239.408 603.988 228.824 551.381 223.248 499.284C234.4 497.746 245.513 496.031 256.489 493.669C256.489 493.669 256.489 493.747 256.558 493.777L269.21 514.759L270.249 516.503C272.993 520.423 277.746 521.472 282.283 521.08C285.168 520.937 287.939 519.911 290.221 518.14C297.257 512.26 290.652 504.282 287.007 498.667" fill="#3FBDF1"/>
<path d="M300.648 516.601C304.99 522.481 312.408 521.736 318.543 517.709C322.247 515.259 325.285 515.974 322.159 508.418C322.737 509.241 322.816 506.458 323.325 507.076C329.646 515.66 323.404 503.528 323.404 503.528C332.224 514.671 351.422 504.175 347.904 495.561C344.18 486.28 340.26 472.56 335.291 465.7C339.211 461.996 338.457 462.544 343.445 465.494C346.162 467.24 347.901 470.162 348.139 473.383C348.541 477.117 348.943 480.694 349.344 484.34L353.166 518.64C354.45 530.037 355.724 541.552 358.498 552.646C359.932 558.645 361.92 564.498 364.436 570.129C367.945 577.881 379.215 590.787 385.369 596.697C393.023 589.102 402.196 575.137 407.811 565.856C418.591 569.168 418.121 579.478 418.885 590.738V591.032C421.061 611.504 401.343 626.881 384.82 636.357C365.671 647.363 344.337 655.595 323.374 662.455C314.731 665.297 303.5 667.747 294.376 664.748C293.392 664.437 292.432 664.054 291.505 663.601C282.41 659.132 276.315 649.793 271.562 641.238C250.756 603.87 241.103 561.446 235.792 518.914C234.982 512.299 239.558 506.232 246.141 505.194C252.109 504.214 258.057 503.234 263.967 501.921L264.133 501.999L275.423 520.727C277.883 524.206 278.285 521.482 282.332 521.129C284.89 520.903 289.849 520.404 291.828 518.747C298.11 513.514 294.562 511.348 291.309 506.341" fill="#3FBDF1"/>
</g>
<path d="M509.692 696.676C509.692 696.676 477.146 685.975 476.656 703.967" stroke="black" stroke-width="5.47"/>
<path opacity="0.54" d="M218.368 879.965L154.54 716.443C152.938 710.031 154.379 703.238 158.447 698.029C162.515 692.82 168.756 689.776 175.365 689.777H428.891C440.609 689.774 450.801 697.806 453.538 709.2L523.412 872.684C524.942 879.074 523.461 885.812 519.393 890.971C515.325 896.13 509.118 899.142 502.548 899.144H242.956C231.33 899.151 221.192 891.243 218.368 879.965Z" fill="white"/>
<path d="M520.286 724.263C520.286 724.263 525.568 729.104 523.559 736.023C522.07 741.149 516.974 744.383 511.927 742.628C495.855 737.072 481.38 727.634 477.852 711.592C476.185 703.469 475.824 695.132 476.784 686.896C477.558 679.262 478.685 671.02 481.253 663.758C485.173 652.606 497.178 644.834 508.83 650.205" stroke="black" stroke-width="5.47"/>
<path d="M218.368 879.965L154.54 716.443C152.938 710.031 154.379 703.238 158.447 698.029C162.515 692.82 168.756 689.776 175.365 689.777H428.891C440.609 689.774 450.801 697.806 453.538 709.2L523.412 872.684C524.942 879.074 523.461 885.812 519.393 890.971C515.325 896.13 509.118 899.142 502.548 899.144H242.956C231.33 899.151 221.192 891.243 218.368 879.965Z" fill="#3FBDF1"/>
<path fill-rule="evenodd" clip-rule="evenodd" d="M218.368 879.965L154.54 716.443C152.938 710.031 154.379 703.238 158.447 698.029C162.515 692.82 168.756 689.776 175.365 689.777H428.891C440.61 689.774 450.801 697.806 453.538 709.2L523.412 872.684C524.942 879.074 523.461 885.812 519.393 890.971C515.325 896.13 509.118 899.142 502.548 899.144H242.956C231.33 899.151 221.192 891.243 218.368 879.965V879.965Z" stroke="black" stroke-width="5.47" stroke-linecap="square" stroke-linejoin="round"/>
<path d="M227.707 873.38L168.819 722.46C167.344 716.544 168.675 710.279 172.429 705.474C176.183 700.67 181.94 697.862 188.037 697.862H421.924C432.733 697.858 442.135 705.266 444.66 715.776L509.134 866.608C510.544 872.504 509.176 878.721 505.421 883.481C501.666 888.24 495.939 891.018 489.877 891.02H250.384C239.677 891.028 230.333 883.76 227.707 873.38Z" fill="#3FBDF1"/>
<path d="M728.262 849.703L773.107 953.475" stroke="black" stroke-width="5.47"/>
<path d="M941 953.475H59" stroke="black" stroke-width="5.47"/>
<path d="M523.883 485.114C516.611 492.297 505.753 492.287 499.569 485.643" stroke="black" stroke-width="5.47"/>
<path d="M330.088 457.997C334.057 454.283 338.77 450.53 343.739 452.176C349.1 453.96 350.599 460.682 351.207 466.288C352.925 481.694 354.64 497.083 356.352 512.456C358.527 532.056 360.82 552.126 368.964 570.139C372.902 578.942 378.468 586.922 385.369 593.659" stroke="black" stroke-width="5.47"/>
<path d="M429.969 593.541V593.218C428.849 580.306 420.128 569.31 407.811 565.278C401.513 575.627 393.976 585.171 385.369 593.698C362.803 616.136 333.814 630.997 302.422 636.22C303.931 642.227 307.038 647.696 309.184 653.478C311.33 659.26 312.399 665.953 309.792 671.529C306.499 678.644 297.052 677.713 290.486 676.135C290.417 676.135 290.378 676.135 290.309 676.135" stroke="black" stroke-width="5.47"/>
<path d="M256.509 493.659C245.533 496.021 234.42 497.736 223.268 499.275C228.844 551.372 239.389 603.978 264.908 649.793C270.229 659.368 277.05 669.844 287.242 674.842C288.281 675.346 289.356 675.775 290.456 676.126C300.678 679.487 313.261 676.733 322.943 673.558C346.463 665.875 370.326 656.653 391.769 644.325C410.281 633.711 432.37 616.483 429.989 593.541C429.758 591.015 429.242 588.523 428.45 586.113" stroke="black" stroke-width="5.47"/>
<path d="M440.044 389.74C443.415 403.802 455.385 414.143 469.787 415.436C470.37 412.607 471.635 409.962 473.472 407.733C481.312 398.492 484.653 415.828 509.731 403.382C544.482 386.095 557.673 396.012 557.673 396.012C558.83 396.875 558.653 404.832 558.849 406.283C559.829 414.544 560.711 422.766 561.681 431.018C562.269 436.055 562.848 441.053 563.396 446.051C563.869 445.2 564.393 444.379 564.964 443.591C568.13 432.39 573.784 419.16 585.975 424.854C588.444 426.057 590.593 427.827 592.247 430.018C600.333 440.641 594.208 450.902 585.75 458.497C583.63 460.853 581.261 462.972 578.684 464.818C580.076 467.699 585.76 479.136 585.76 479.175C586.348 480.331 606.213 457.85 607.692 455.4C609.903 449.398 611.089 443.067 611.201 436.672C611.524 410.379 600.822 379.774 579.527 364.691C574.245 360.958 575.93 357.361 575.607 352.285C575.561 351.723 575.174 351.247 574.633 351.089C574.092 350.93 573.509 351.121 573.167 351.569C566.493 359.252 549.97 358.488 549.97 358.488C492.621 344.121 473.344 369.621 461.77 374.168C457.048 375.957 451.85 376.044 447.07 374.413C446.497 377.638 444.184 380.279 441.063 381.273L441.357 383.929C441.606 385.96 441.142 388.014 440.044 389.74H440.044Z" fill="#3FBDF1"/>
<path d="M469.826 415.475C455.424 414.182 443.454 403.841 440.083 389.779C439.439 387.149 439.033 384.466 438.868 381.763L439.318 381.714C439.935 381.668 440.542 381.536 441.122 381.322C444.243 380.328 446.556 377.687 447.129 374.462C447.308 373.585 447.345 372.685 447.237 371.796L445.767 358.821C445.767 358.821 456.135 366.534 467.64 362.026C479.146 357.518 498.461 332.018 555.84 346.346C555.84 346.346 568.796 347.11 575.44 339.427C575.783 338.979 576.365 338.788 576.906 338.947C577.447 339.105 577.835 339.581 577.881 340.142C578.224 345.229 580.105 348.825 585.397 352.549C606.693 367.641 617.394 398.237 617.061 424.53C616.963 435.438 613.337 446.208 607.741 455.449C606.261 457.899 586.397 480.38 585.809 479.224C585.809 479.224 580.125 467.748 578.733 464.867L578.4 464.23L579.037 463.809C581.403 462.203 583.661 460.445 585.799 458.546C594.247 450.951 600.381 440.69 592.296 430.067C590.642 427.876 588.493 426.106 586.024 424.903C573.794 419.209 568.179 432.439 565.013 443.64C564.399 445.781 564.021 447.983 563.886 450.206C563.739 448.834 563.592 447.511 563.445 446.139C562.896 441.141 562.318 436.143 561.73 431.106C560.75 422.854 559.829 414.632 558.898 406.371C558.751 404.96 558.898 396.963 557.722 396.1C557.722 396.1 544.521 386.183 509.78 403.47C484.702 415.916 481.36 398.57 473.52 407.821C471.684 410.051 470.419 412.695 469.836 415.524C469.656 416.433 469.542 417.353 469.493 418.278C469.474 418.398 469.474 418.52 469.493 418.64C469.375 420.669 469.336 422.688 469.287 424.667C469.101 443.768 471.198 463.72 478.695 481.458C487.809 502.96 511.927 524.167 537.005 514.141C544.845 510.996 551.871 505.929 558.3 500.549" stroke="black" stroke-width="5.47"/>
<ellipse cx="485.159" cy="456.594" rx="4.7628" ry="5.7624" transform="rotate(-18.5 485.159 456.594)" fill="black"/>
<ellipse cx="522.473" cy="455.402" rx="4.7628" ry="5.7624" transform="rotate(-18.5 522.473 455.402)" fill="black"/>
<path d="M510.035 467.327C510.035 467.327 497.618 474.373 496.864 467.062C496.629 464.808 493.591 442.729 493.591 442.729C493.591 442.729 483.555 432.096 468.179 439.955" stroke="black" stroke-width="5.47"/>
<path d="M507.242 436.545C507.242 436.545 527.293 426.529 540.562 440.965" stroke="black" stroke-width="5.47"/>
<path d="M525.627 516.601L527.93 528.42C520.668 535.113 515.533 544.707 517.032 554.811C518.365 563.768 525.695 572.108 533.212 576.802C545.776 584.642 562.485 584.025 576.009 579.037C589.229 574.137 600.665 564.837 608.956 553.488C612.861 548.002 615.461 541.698 616.561 535.054V534.937" stroke="black" stroke-width="5.47"/>
<path d="M527.93 528.42L532.418 549.764" stroke="black" stroke-width="5.47"/>
<path d="M591.404 474.079L598.186 519.11C599.568 528.22 607.406 534.949 616.62 534.937C637.726 538.357 658.547 543.35 678.909 549.872C758.455 575.528 807.416 647.186 821.244 727.252C826.996 760.778 827.428 795.94 820.205 829.28C816.099 848.047 810.16 869.127 796.371 883.18C778.467 901.506 750.988 893.96 729.829 885.679C664.14 860.13 609.505 814.678 562.328 762.64C537.103 734.808 504.508 712.503 504.508 712.503" stroke="black" stroke-width="5.47"/>
<path d="M249.414 839.599C242.044 839.531 235.625 833.582 233.969 825.301C230.696 809.014 229.834 783.828 253.716 778.33C283.557 771.47 306.509 803.967 317.759 824.507C321.542 831.367 317.259 840.187 310.213 840.187L249.414 839.599Z" fill="#D7E8F0"/>
<ellipse cx="248.011" cy="747.588" rx="13.7788" ry="20.3154" transform="rotate(-33.64 248.011 747.588)" fill="#D7E8F0"/>
<path d="M749.675 910.738C749.214 910.806 748.695 910.875 748.244 910.983H748.068L678.36 910.62L573.765 910.081C573.363 910.081 572.971 910.081 572.579 910.081C571.802 910.062 571.027 910.003 570.256 909.905C584.885 908.205 596.176 896.237 597.02 881.534C597.04 881.165 597.04 880.795 597.02 880.426V879.858C596.961 865.493 586.831 853.141 572.755 850.272C572.04 850.095 571.256 849.987 570.501 849.88C571.687 849.772 572.863 849.693 574.01 849.693L662.376 850.164L678.644 850.232L700.587 850.34C716.155 851.761 728.088 864.793 728.134 880.426C728.135 881.85 728.027 883.272 727.811 884.679C725.652 899.523 712.959 910.553 697.96 910.62H751.057C747.999 910.62 748.852 910.62 749.675 910.738Z" fill="white"/>
<path d="M608.28 947.184C612.302 951.229 617.776 953.495 623.48 953.476H572.147C562.347 953.476 556.997 951.084 553.096 947.184C549.088 943.158 546.831 937.714 546.814 932.033C546.814 920.273 556.458 910.63 572.147 910.63H623.48C614.813 910.617 606.993 915.831 603.675 923.838C600.356 931.845 602.194 941.062 608.329 947.184H608.28Z" fill="#D7E8F0"/>
<path d="M777.81 880.965C777.797 885.492 776.744 889.954 774.733 894.009C773.297 897.074 771.326 899.858 768.912 902.231C764.933 906.175 759.934 908.934 754.477 910.199C752.227 910.718 749.925 910.981 747.617 910.983C748.087 910.875 748.597 910.806 749.047 910.738C748.224 910.659 747.372 910.63 750.439 910.63H697.333C712.343 910.572 725.048 899.534 727.203 884.68C727.419 883.272 727.528 881.85 727.527 880.426C727.48 864.789 715.542 851.756 699.969 850.34L728.634 850.487L747.783 850.595C764.442 850.735 777.859 864.306 777.81 880.965Z" fill="#3FBDF1"/>
<path fill-rule="evenodd" clip-rule="evenodd" d="M777.811 880.955C777.686 897.627 764.102 911.058 747.431 910.992L573.069 910.091C571.903 910.091 570.737 910.003 569.561 909.885C584.773 908.161 596.292 895.331 596.372 880.022C596.452 864.712 585.068 851.762 569.874 849.88C571.04 849.757 572.211 849.698 573.383 849.703L747.744 850.605C764.413 850.718 777.854 864.286 777.811 880.955V880.955Z" stroke="black" stroke-width="5.47" stroke-linecap="square" stroke-linejoin="round"/>
<path fill-rule="evenodd" clip-rule="evenodd" d="M727.507 880.416C727.475 897.084 713.971 910.587 697.303 910.62H573.245C572.073 910.613 570.902 910.548 569.737 910.424C584.939 908.619 596.388 895.73 596.388 880.421C596.388 865.112 584.939 852.223 569.737 850.418C570.903 850.311 572.079 850.232 573.245 850.232H697.303C713.961 850.27 727.459 863.758 727.507 880.416V880.416Z" stroke="black" stroke-width="5.47" stroke-linecap="square" stroke-linejoin="round"/>
<path fill-rule="evenodd" clip-rule="evenodd" d="M546.815 932.043C546.813 937.719 549.07 943.163 553.087 947.174C557.007 951.094 562.328 953.475 572.138 953.475H750.429C747.362 953.475 748.195 953.417 749.028 953.338C738.23 952.067 730.092 942.915 730.092 932.043C730.092 921.17 738.23 912.018 749.028 910.747C748.195 910.669 747.362 910.61 750.429 910.61H572.138C556.438 910.62 546.815 920.263 546.815 932.043H546.815Z" stroke="black" stroke-width="5.47" stroke-linecap="square" stroke-linejoin="round"/>
<path fill-rule="evenodd" clip-rule="evenodd" d="M601.989 932.043C602.016 943.868 611.596 953.448 623.421 953.475H746.539C747.362 953.475 748.195 953.417 749.028 953.338C738.23 952.067 730.092 942.915 730.092 932.043C730.092 921.17 738.23 912.018 749.028 910.747C748.195 910.669 747.362 910.61 746.539 910.61H623.421C611.598 910.642 602.021 920.219 601.989 932.043H601.989Z" stroke="black" stroke-width="5.47" stroke-linecap="square" stroke-linejoin="round"/>
<path d="M402.412 768.52H347.414C342.273 768.511 337.622 765.466 335.556 760.758C334.763 759.015 334.918 756.986 335.968 755.384C337.018 753.781 338.815 752.829 340.73 752.86H399.197C396.443 757.495 397.845 763.934 402.412 768.52Z" fill="#D7E8F0"/>
<path d="M437.976 762.855C437.97 765.976 435.442 768.505 432.321 768.51H402.412C397.845 763.933 396.443 757.495 399.197 752.83H425.608C430.743 752.831 435.395 755.858 437.476 760.552C437.792 761.28 437.962 762.062 437.976 762.855Z" fill="#3FBDF1"/>
<path d="M424.217 768.52C424.062 768.819 423.881 769.104 423.678 769.373C419.758 774.733 411.241 775.253 404.626 770.411C403.844 769.834 403.104 769.202 402.412 768.52C397.845 763.943 396.443 757.505 399.197 752.84C399.352 752.541 399.532 752.256 399.736 751.987C403.656 746.588 412.133 746.107 418.748 750.909C419.544 751.505 420.295 752.16 420.992 752.869C425.52 757.426 426.931 763.826 424.217 768.52Z" fill="white"/>
<path d="M451.804 797.381C451.782 800.505 449.244 803.026 446.12 803.026H388.407C391.191 798.341 389.799 791.952 385.222 787.346H439.436C444.579 787.347 449.236 790.388 451.304 795.098C451.627 795.816 451.797 796.593 451.804 797.381Z" fill="#3FBDF1"/>
<path d="M388.407 803.026H361.252C356.115 803.03 351.461 800.001 349.384 795.303C349.064 794.584 348.893 793.807 348.884 793.02C348.881 791.522 349.475 790.085 350.534 789.026C351.594 787.967 353.031 787.373 354.529 787.375H385.222C389.799 791.952 391.22 798.341 388.407 803.026Z" fill="#D7E8F0"/>
<path d="M388.407 803.026C388.28 803.334 388.112 803.624 387.908 803.888C383.988 809.278 375.501 809.768 368.896 804.956C368.096 804.36 367.343 803.705 366.642 802.996C362.104 798.42 360.713 792.03 363.427 787.316C363.584 787.015 363.764 786.727 363.966 786.454C367.886 781.093 376.402 780.574 383.008 785.425C383.794 785.997 384.535 786.629 385.222 787.316C389.799 791.952 391.22 798.341 388.407 803.026Z" fill="white"/>
<path d="M407.635 837.297H373.08C367.947 837.29 363.298 834.265 361.212 829.574C360.422 827.825 360.579 825.794 361.629 824.188C362.68 822.581 364.478 821.623 366.397 821.646H404.421C401.696 826.34 403.098 832.72 407.635 837.297Z" fill="#3FBDF1"/>
<path d="M463.632 831.691C463.616 834.795 461.092 837.302 457.987 837.296H407.635C403.098 832.72 401.696 826.33 404.421 821.616H451.265C456.408 821.618 461.064 824.659 463.132 829.368C463.455 830.1 463.625 830.891 463.632 831.691Z" fill="#D7E8F0"/>
<path d="M429.44 837.296C429.283 837.597 429.103 837.886 428.901 838.159C424.981 843.549 416.504 844.039 409.889 839.227C409.095 838.629 408.345 837.973 407.645 837.267C403.107 832.69 401.706 826.301 404.43 821.587C404.58 821.284 404.757 820.995 404.96 820.725C408.88 815.364 417.396 814.903 424.011 819.696C424.797 820.267 425.538 820.9 426.226 821.587C430.792 826.222 432.184 832.651 429.44 837.296Z" fill="white"/>
<path d="M168.378 524.863L169.24 525.108L168.917 526.362C168.712 525.872 168.532 525.371 168.378 524.863Z" fill="#353642"/>
<ellipse cx="313.527" cy="575.273" rx="24.3432" ry="29.1746" transform="rotate(-16.36 313.527 575.273)" fill="#D7E8F0"/>
</svg>
