<svg width="1000" height="1000" viewBox="0 0 1000 1000" fill="none" xmlns="http://www.w3.org/2000/svg">
<path d="M640.199 481.674C574.372 520.874 494.071 474.687 497.844 473.883C622.285 446.825 633.28 368.317 633.28 368.317C608.437 307.616 540.719 327.157 540.719 327.157C538.759 413.299 436.232 418.15 436.232 418.15C429.646 390.201 430.009 324.943 430.009 324.943C398.933 303.216 392.641 312.438 392.641 312.438C402.441 226.198 441.906 198.395 441.906 198.395C448.482 192.27 477.872 178.501 492.964 176.718L493.503 179.109C493.503 179.109 478.244 217.211 507.487 219.72C532.095 221.876 546.08 191.584 549.892 181.97C581.889 191.888 612.426 214.085 632.741 251.423C680.8 339.76 640.199 481.674 640.199 481.674Z" fill="#2E2E2E"/>
<path d="M647.314 444.503L807.26 550.343C838.277 570.864 834.288 617.571 800.272 632.535L613.092 714.914C577.69 730.49 536.729 726.483 505.018 704.34L433.135 654.085" stroke="black" stroke-width="4.21"/>
<path d="M647.314 478.636L641.934 475.069L807.289 584.456C838.306 604.978 834.317 651.684 800.302 666.649L613.122 749.028C577.72 764.604 536.758 760.597 505.047 738.454L413.652 673.362" stroke="black" stroke-width="4.21"/>
<path d="M786.503 626.694L614.464 702.419C581.928 716.73 544.285 713.045 515.141 692.697L449.216 646.383C458.293 639.426 468.464 634.028 479.312 630.409C506.487 621.178 533.008 610.121 558.692 597.314C598.168 577.785 626.871 541.662 636.975 498.795C640.424 484.144 643.452 469.326 645.932 454.43L797.342 554.517C825.84 573.373 817.755 612.955 786.503 626.694Z" fill="#3FBDF1"/>
<path d="M343.2 846.156C343.2 846.156 373.365 833.651 379.147 824.223C379.147 824.223 380.234 845.626 374.59 852.937C368.945 860.248 335.213 879.574 333.4 877.153C331.587 874.732 343.2 846.156 343.2 846.156Z" fill="#3FBDF1"/>
<path d="M250.345 897.155C250.345 897.155 255.833 904.603 275.306 897.155C294.778 889.707 337.144 862.276 337.144 862.276C337.144 862.276 325.325 894.009 321.042 897.498C316.76 900.986 235.851 940.618 235.851 940.618C235.851 940.618 199.679 945.763 213.311 920.038L250.345 897.155Z" fill="#3FBDF1"/>
<path d="M366.788 482.537C322.198 499.892 275.011 540.67 288.584 653.596L292.357 682.937" stroke="black" stroke-width="4.21"/>
<path d="M366.72 408.792C374.011 398.384 380.597 387.134 384.634 375.021C388.672 362.908 388.878 349.786 390.005 337.046C393.003 302.883 397.649 274.63 410.83 242.809C422.247 215.271 456.733 179.795 491.043 176.434L494.13 176.169" stroke="black" stroke-width="4.21"/>
<path d="M452.96 480.038C452.793 479.557 452.626 479.107 452.45 478.636" stroke="black" stroke-width="4.21"/>
<path d="M436.231 416.034C434.546 406.126 433.291 396.522 432.311 387.408C432.314 387.236 432.294 387.065 432.253 386.898C427.117 336.007 432.311 298.982 432.311 298.982" stroke="black" stroke-width="4.21"/>
<path d="M556.095 107.157L548.255 110.215C548.255 110.46 548.255 113.517 547.922 117.8C547.557 122.915 546.744 127.988 545.491 132.961C546.187 129.57 547.196 121.514 542.767 115.909C542.698 115.794 542.62 115.686 542.532 115.585C539.592 112.047 535.966 113.449 533.055 115.879C531.045 117.58 529.289 119.56 527.841 121.759C528.349 115.212 527.175 108.644 524.431 102.679C522.641 98.6089 520.268 94.8222 517.385 91.4379C521.824 106.726 516.13 116.732 516.13 116.732C501.087 120.27 490.65 119.515 482.869 118.172C476.313 112.057 478.587 90.0365 478.587 90.0365C471.991 95.4265 473.579 116.281 473.579 116.281C472.737 110.839 472.839 105.293 473.883 99.8855C470.607 104.519 468.714 109.987 468.424 115.654L468.306 115.595C467.852 115.478 467.404 115.338 466.964 115.174C466.156 114.749 465.374 114.278 464.622 113.762L460.28 110.822C466.836 77.3749 489.759 56.3441 525.176 62.5181C527.488 62.9166 529.763 63.5066 531.977 64.2821C555.311 76.4439 556.095 107.157 556.095 107.157Z" fill="#3FBDF1"/>
<path d="M353.98 432.909L345.052 406.038C344.65 404.765 343.62 403.791 342.328 403.46C342.249 403.46 342.161 403.46 342.073 403.401C341.985 403.343 341.965 403.401 341.906 403.401C341.701 403.388 341.494 403.388 341.289 403.401C340.299 403.405 339.346 403.783 338.623 404.46C337.158 405.814 336.323 407.717 336.32 409.713C336.321 410.485 336.443 411.252 336.683 411.986C338.643 417.66 342.132 427.901 343.788 432.566" fill="#3FBDF1"/>
<path d="M351.961 432.909L342.337 403.46C342.259 403.46 342.171 403.46 342.083 403.401C341.994 403.343 341.975 403.401 341.916 403.401L336.869 402.421C334.174 401.922 331.479 401.383 328.784 400.883C325.55 400.236 322.296 399.697 319.072 398.923C318.311 398.708 317.529 398.576 316.74 398.531C315.746 398.528 314.791 398.911 314.074 399.599C312.595 400.952 311.759 402.867 311.771 404.871C311.766 405.634 311.889 406.393 312.134 407.116C314.3 413.466 318.425 425.481 319.739 429.126L351.961 432.909Z" fill="#3FBDF1"/>
<path d="M542.238 298.973C541.258 309.88 540.749 323.081 540.406 339.672C540.406 374.952 501.402 404.166 466.739 410.849L403.176 425.206C394.778 426.833 387.339 421.59 381.499 418.111C375.491 414.534 369.337 410.271 365.005 407.106C358.772 402.549 346.767 406.214 349.227 417.082C350.302 421.271 353.27 424.718 357.253 426.402C358.36 426.898 359.499 427.317 360.664 427.656C361.555 427.88 362.186 428.675 362.199 429.594C362.213 430.513 361.607 431.326 360.723 431.576C355.215 433.478 345.131 434.605 328.863 428.636C308.018 420.963 306.401 468.532 334.9 476.813H335.007C361.262 484.751 389.515 483.732 416.651 482.595C447.466 481.428 478.129 477.687 508.32 471.413C523.677 468.16 539.455 464.779 553.508 457.831C577.714 445.865 595.158 432.145 611.75 410.791C630.37 386.849 638.317 355.44 642.806 325.991C647.941 292.299 640.846 263.849 622.784 234.851L622.118 233.793" stroke="black" stroke-width="4.21"/>
<path d="M353.98 432.909L345.052 406.038C344.65 404.765 343.62 403.791 342.328 403.46C342.249 403.46 342.161 403.46 342.073 403.401C341.985 403.343 341.965 403.401 341.906 403.401C341.701 403.388 341.494 403.388 341.289 403.401C340.299 403.405 339.346 403.783 338.623 404.46C337.158 405.814 336.323 407.717 336.32 409.713C336.321 410.485 336.443 411.252 336.683 411.986C338.643 417.66 342.132 427.901 343.788 432.566" stroke="black" stroke-width="4.21"/>
<path d="M342.338 403.46C342.259 403.46 342.171 403.46 342.083 403.401C341.995 403.343 341.975 403.401 341.916 403.401L336.869 402.421C334.174 401.922 331.479 401.383 328.784 400.883C325.55 400.236 322.297 399.697 319.073 398.923C318.312 398.708 317.53 398.576 316.74 398.531C315.747 398.528 314.791 398.911 314.075 399.599C312.596 400.952 311.759 402.867 311.772 404.871C311.767 405.634 311.889 406.393 312.134 407.116C314.3 413.466 318.426 425.481 319.739 429.126" stroke="black" stroke-width="4.21"/>
<path d="M465.377 114.693C465.377 127.433 467.856 139.615 473.972 150.865C478.872 159.901 486.065 169.005 496.355 171.994C498.635 172.652 500.998 172.982 503.372 172.974C520.835 172.896 523.56 152.208 523.56 152.208" stroke="black" stroke-width="4.21"/>
<path d="M547.334 122.083V122.141C546.525 128.463 545.134 134.696 543.179 140.761C540.844 147.997 540.292 155.689 541.572 163.184L544.287 178.972C544.539 180.407 545.59 181.572 546.991 181.97C581.448 191.976 612.034 214.056 629.831 245.935C652.028 285.743 656.075 333.684 654.282 378.372C652.704 417.112 646.442 455.626 637.553 493.326C626.552 539.978 595.313 579.291 552.352 600.548C524.43 614.49 495.594 626.523 466.043 636.563C434.364 647.054 409.092 671.253 397.238 702.448L327.795 887.1C325.243 893.917 320.209 899.517 313.702 902.78L247.16 936.208C238.757 940.414 229.172 941.63 219.985 939.657C215.11 938.605 211.376 934.678 210.571 929.757C209.766 924.835 212.054 919.922 216.339 917.372L250.326 897.155L297.062 658.897C303.718 615.881 328.856 577.928 365.868 555.017C368.306 553.531 370.847 552.221 373.473 551.097L474.785 507.105" stroke="black" stroke-width="4.21"/>
<path d="M519.483 60.2152C514.067 58.9243 508.46 58.6386 502.94 59.3724C502.714 59.3774 502.488 59.397 502.264 59.4312" stroke="black" stroke-width="4.21"/>
<path d="M494.943 176.747C494.943 176.747 477.019 217.838 509.075 219.867C537.838 221.709 548.393 182.627 548.393 182.627" stroke="black" stroke-width="4.21"/>
<path fill-rule="evenodd" clip-rule="evenodd" d="M545.08 134.46C545.286 133.706 548.373 122.563 542.473 115.546C536.574 108.529 528.577 120.564 527.773 121.769C529.341 104.492 517.336 91.3891 517.336 91.3891C521.766 106.687 516.062 116.683 516.062 116.683C494.14 121.818 482.076 117.908 473.52 116.222C472.679 110.783 472.785 105.24 473.834 99.8367C470.549 104.458 468.655 109.923 468.375 115.585H468.238C464.981 114.72 461.894 113.312 459.105 111.42L454.763 108.48C461.329 75.0427 484.242 53.9923 519.659 60.1663C555.076 66.3403 556.066 107.069 556.066 107.069L548.177 110.137C548.177 110.137 548.245 123.582 545.08 134.46V134.46Z" stroke="black" stroke-width="4.21"/>
<path d="M479.116 132.716V148.974C479.119 149.375 479.313 149.751 479.638 149.987C479.962 150.223 480.38 150.291 480.763 150.169C482.041 149.746 483.217 149.058 484.212 148.151" stroke="black" stroke-width="4.21"/>
<ellipse cx="464.36" cy="132.148" rx="9.9666" ry="13.8572" transform="rotate(-21.3 464.36 132.148)" stroke="black" stroke-width="4.21"/>
<ellipse cx="495.221" cy="136.797" rx="9.9666" ry="13.8572" transform="rotate(-21.3 495.221 136.797)" stroke="black" stroke-width="4.21"/>
<path d="M474.804 133.558C474.804 133.558 477.842 130.089 484.212 134.156" stroke="black" stroke-width="4.21"/>
<path d="M493.503 170.965C493.503 170.965 495.708 178.433 502.196 202.639" stroke="black" stroke-width="4.21"/>
<path d="M331.078 878.378L369.298 857.749C373.745 855.338 376.713 850.884 377.226 845.852C383.576 783.475 381.636 744.04 381.636 744.04" stroke="black" stroke-width="4.21"/>
<path d="M296.386 558.487L149.297 455.694" stroke="black" stroke-width="4.21"/>
<path d="M288.056 586.808L149.297 489.828" stroke="black" stroke-width="4.21"/>
<path d="M850.703 391.426V475.579C850.703 483.463 846.054 490.605 838.845 493.797L734.475 540.014L702.566 588.504C700.881 590.971 697.793 592.065 694.931 591.207C692.069 590.349 690.091 587.738 690.041 584.751V559.702L679.34 564.435C674.505 566.549 668.93 566.09 664.507 563.212C660.083 560.334 657.404 555.424 657.378 550.147V479.871C657.381 461.958 668.019 445.756 684.455 438.633L827.888 376.452C832.933 374.262 838.741 374.76 843.339 377.778C847.937 380.796 850.705 385.926 850.703 391.426Z" fill="#D7E8F0"/>
<ellipse cx="710.257" cy="494.981" rx="20.2272" ry="13.9846" transform="rotate(-62.6 710.257 494.981)" fill="white"/>
<ellipse cx="754.831" cy="475.902" rx="20.2272" ry="13.9846" transform="rotate(-62.6 754.831 475.902)" fill="white"/>
<ellipse cx="797.906" cy="455.3" rx="20.2272" ry="13.9846" transform="rotate(-62.6 797.906 455.3)" fill="white"/>
</svg>
