<svg width="1000" height="1000" viewBox="0 0 1000 1000" fill="none" xmlns="http://www.w3.org/2000/svg">
<rect x="673.117" y="402.921" width="209.504" height="285.562" rx="16.64" stroke="#CCDDE2" stroke-width="4.83"/>
<rect x="691.051" y="432.341" width="175.783" height="50.225" rx="8.32" stroke="#CCDDE2" stroke-width="4.83"/>
<circle cx="777.869" cy="448.305" r="5.194" fill="#D7E8F0"/>
<path d="M763.355 471.805C763.355 463.79 769.853 457.292 777.869 457.292C785.885 457.292 792.383 463.79 792.383 471.805H763.355Z" fill="#D7E8F0"/>
<path fill-rule="evenodd" clip-rule="evenodd" d="M778.927 536.397C763.476 536.403 750.955 548.932 750.958 564.383C750.962 579.834 763.489 592.357 778.941 592.355C794.392 592.353 806.916 579.827 806.916 564.376C806.916 556.954 803.967 549.836 798.718 544.589C793.469 539.341 786.35 536.395 778.927 536.397ZM778.927 585.603C776.746 585.496 775.031 583.696 775.031 581.512C775.031 579.327 776.746 577.527 778.927 577.42C781.109 577.527 782.824 579.327 782.824 581.512C782.824 583.696 781.109 585.496 778.927 585.603ZM783.748 556.598C783.863 555.773 783.976 554.951 784.092 554.135C784.151 553.683 784.23 553.21 784.311 552.725C784.769 549.978 785.286 546.88 782.495 545.305C779.819 543.796 775.213 544.09 773.577 547.03C772.126 549.556 773.002 553.404 773.718 556.55C773.917 557.421 774.102 558.237 774.223 558.957C774.905 563.521 775.887 568.036 777.163 572.471C777.595 573.892 780.26 573.892 780.691 572.471C782.261 567.365 783.015 561.907 783.748 556.598Z" fill="#D7E8F0"/>
<path fill-rule="evenodd" clip-rule="evenodd" d="M472.785 459.614C452.725 453.633 431.037 460.324 417.834 476.569C404.632 492.814 402.515 515.413 412.472 533.826C422.429 552.24 442.497 562.842 463.32 560.689C484.142 558.536 501.617 544.052 507.595 523.99C511.517 510.838 510.053 496.665 503.525 484.592C496.997 472.519 485.939 463.534 472.785 459.614ZM446.786 546.834C442.9 545.551 440.738 541.41 441.907 537.488C443.077 533.566 447.153 531.285 451.108 532.34C453.77 533.05 455.836 535.152 456.5 537.826C457.164 540.5 456.322 543.324 454.302 545.197C452.282 547.071 449.403 547.698 446.786 546.834ZM470.678 497.899C471.307 496.518 471.933 495.142 472.56 493.777C472.902 493.011 473.291 492.217 473.688 491.405C475.954 486.779 478.512 481.558 474.451 477.323C470.482 473.246 462.172 471.423 457.742 475.667C453.836 479.382 453.355 486.668 452.963 492.614C452.855 494.259 452.753 495.802 452.588 497.138C451.363 505.578 450.708 514.091 450.628 522.618C450.637 525.362 455.371 526.774 456.88 524.48C462.329 516.243 466.562 506.943 470.678 497.899Z" fill="#3FBDF1"/>
<path fill-rule="evenodd" clip-rule="evenodd" d="M328.235 574.206C318.214 584.404 318.357 600.795 328.554 610.818C338.751 620.841 355.142 620.7 365.166 610.504C375.19 600.309 375.052 583.917 364.858 573.892C354.657 563.868 338.263 564.008 328.235 574.206ZM360.713 606.124C359.765 607.089 358.376 607.475 357.067 607.137C355.758 606.799 354.729 605.788 354.367 604.486C354.005 603.184 354.366 601.787 355.313 600.822C356.777 599.331 359.172 599.309 360.664 600.773C362.155 602.237 362.177 604.633 360.713 606.124ZM344.726 584.181C344.247 583.558 343.77 582.938 343.298 582.32C343.034 581.984 342.77 581.62 342.499 581.248C340.982 579.161 339.28 576.82 336.477 577.636C333.792 578.41 330.989 581.683 331.832 584.623C332.565 587.24 335.701 589.17 338.249 590.738C338.936 591.161 339.58 591.557 340.123 591.934C343.559 594.459 347.16 596.751 350.903 598.794C352.118 599.401 353.843 597.667 353.186 596.461C350.844 592.132 347.742 588.101 344.726 584.181Z" fill="#3FBDF1"/>
<path d="M708.632 504.988H845.313" stroke="#CCDDE2" stroke-width="4"/>
<path d="M708.632 518.444H845.313" stroke="#CCDDE2" stroke-width="4"/>
<path d="M708.632 605.076H845.313" stroke="#CCDDE2" stroke-width="4"/>
<path d="M740.374 617.806H813.561" stroke="#CCDDE2" stroke-width="4"/>
<path d="M882.631 587.416C894.685 602.567 906.151 621.344 916.52 644.481C979.651 785.464 900.742 857.014 900.742 857.014" stroke="#9F9F9F" stroke-width="4"/>
<path d="M223.238 699.205C223.238 699.205 129.56 592.943 246.376 540.327C363.192 487.711 386.32 480.4 377.892 425.667C369.464 370.934 435.712 315.201 539.896 352.03C644.079 388.858 646.167 458.262 638.778 511.917C634.583 542.503 651.939 549.853 673.078 548.314" stroke="#9F9F9F" stroke-width="4"/>
<path fill-rule="evenodd" clip-rule="evenodd" d="M871.577 919.695C874.27 914.478 875.788 908.735 876.026 902.868C876.035 902.636 876.028 902.404 876.007 902.172C876.702 889.187 873.165 872.91 864.766 853.907V853.849C857.004 836.365 845.068 816.609 828.506 795.049L828.408 794.951C813.953 776.144 800.85 761.062 789.776 749.224C789.41 748.836 789.044 748.446 788.676 748.055C787.402 746.699 786.118 745.334 784.818 744.01C784.601 743.779 784.384 743.555 784.171 743.335C783.95 743.106 783.733 742.882 783.524 742.658C767.746 726.4 757.015 717.697 753.605 715.071C752.85 714.444 752.438 714.159 752.438 714.159C665.013 688.973 655.418 791.325 655.418 791.325H655.487L719.187 840.815L719.403 840.971C719.425 840.964 719.449 840.964 719.471 840.971C720.255 841.354 730.957 846.655 735.563 852.839C736.616 854.156 737.311 855.722 737.582 857.386C737.647 857.979 737.563 858.579 737.337 859.131C736.141 861.747 731.535 863.325 726.488 864.305C721.215 865.185 715.887 865.702 710.543 865.854C710.451 865.854 709.616 865.936 708.174 866.079C707.627 866.133 706.994 866.195 706.28 866.265L703.34 866.549C702.585 866.611 701.787 866.692 700.932 866.779C700.566 866.816 700.19 866.854 699.803 866.892L697.157 867.147C697.001 867.158 696.832 867.179 696.656 867.201C696.366 867.237 696.058 867.275 695.765 867.275L692.825 867.559C692.693 867.574 692.557 867.593 692.421 867.611C692.042 867.663 691.651 867.716 691.277 867.716C668.844 869.95 634.182 873.488 629.105 874.468C626.653 875.039 624.099 875.015 621.657 874.399C620.4 874.097 619.232 873.503 618.247 872.665L574.598 840.726C567.391 835.467 560.901 830.312 555.125 825.262C553.979 823.768 552.756 822.335 551.46 820.97C513.211 779.623 510.084 753.242 510.084 753.242C509.411 753.087 508.726 752.992 508.036 752.958C513.495 750.018 525.323 743.608 527.283 741.815C527.354 741.749 527.423 741.684 527.492 741.619C529.902 739.346 531.539 737.802 537.799 746.891C544.237 756.241 568.6 756.838 568.6 756.838C595.736 748.92 592.914 706.878 591.562 691.757C590.209 676.635 582.095 672.411 582.095 672.411C582.352 666.47 581.463 660.534 579.478 654.928C585.887 652.302 686.916 613.043 794.823 694.501C906.328 778.683 918.46 951.702 918.46 951.702H827.771C836.291 950.089 844.397 946.772 851.605 941.951L851.889 941.755C859.873 936.224 866.481 928.936 871.205 920.449C871.346 920.207 871.471 919.955 871.577 919.695ZM625.078 685.73C624.264 686.327 609.75 697.127 612.338 726.948C614.925 756.76 642.963 781.593 644.06 782.514C644.009 782.43 643.903 782.265 643.749 782.023C639.876 775.951 605.228 721.64 625.078 685.73Z" fill="#353642"/>
<path d="M557.516 721.098C556.442 721.888 555.323 722.614 554.165 723.273L547.442 711.513C562.945 703.585 567.297 689.61 560.476 681.937C558.569 679.838 556.11 678.317 553.381 677.547C546.521 675.469 541.768 678.527 538.543 682.633C535.912 686.202 533.983 690.24 532.859 694.53L529.586 656.78L529.331 653.84C529.331 653.84 522.197 650.303 502.871 653.458C483.546 656.614 479.988 667.286 471.688 662.553C463.387 657.819 458.683 658.201 458.683 658.201C456.321 666.874 450 666.874 450 666.874C448.503 666.694 447.032 666.335 445.62 665.806C436.653 657.564 434.222 643.266 434.222 643.266C443.63 642.1 444.356 633.045 443.278 625.626C448.491 628.723 455.841 628.939 466.161 622.314C495.766 603.38 526.127 613.631 536.799 615.209C541.562 615.905 546.775 614.229 551.097 612.269C551.655 613.269 552.433 614.13 553.371 614.787C560.575 619.806 566.516 626.428 570.727 634.133C598.51 686.063 568.051 713.64 557.516 721.098Z" fill="#3FBDF1"/>
<path d="M446.61 951.721H457.782C467.731 951.71 475.793 943.648 475.804 933.699V921.194C475.804 918.892 474.889 916.685 473.26 915.058C471.632 913.431 469.423 912.519 467.121 912.521H400.305C400.31 917.897 398.176 923.054 394.374 926.854C390.572 930.654 385.414 932.786 380.038 932.778H138.596C138.601 943.238 147.079 951.716 157.539 951.721H484.859C485.723 951.724 486.552 951.382 487.163 950.771C487.773 950.16 488.115 949.331 488.113 948.468V928.172C488.113 919.961 494.769 913.305 502.979 913.305C511.19 913.305 517.846 919.961 517.846 928.172V948.468C517.843 949.33 518.184 950.157 518.793 950.768C519.401 951.378 520.228 951.721 521.09 951.721H918.46C918.46 951.721 906.328 778.663 794.823 694.491C686.916 613.033 585.887 652.292 579.478 654.918L579.164 655.036" stroke="black" stroke-width="4.83"/>
<path d="M467.748 697.274C467.737 700.312 465.269 702.767 462.231 702.762C459.193 702.757 456.733 700.292 456.733 697.254C456.733 694.217 459.193 691.752 462.231 691.747C462.657 691.749 463.081 691.801 463.495 691.904C462.324 692.273 461.53 693.361 461.535 694.589C461.53 695.347 461.826 696.076 462.36 696.615C462.893 697.153 463.619 697.458 464.377 697.46C465.793 697.432 466.988 696.398 467.219 695C467.557 695.711 467.737 696.487 467.748 697.274Z" fill="black"/>
<path d="M505.978 698.813C505.982 701.049 504.638 703.068 502.573 703.926C500.508 704.785 498.129 704.314 496.546 702.734C494.963 701.154 494.488 698.776 495.343 696.71C496.198 694.643 498.214 693.295 500.451 693.295C500.715 693.293 500.978 693.323 501.235 693.383C500.236 693.843 499.597 694.842 499.598 695.941C499.553 696.957 500.052 697.919 500.909 698.466C501.765 699.013 502.849 699.062 503.751 698.594C504.653 698.125 505.237 697.211 505.282 696.196C505.735 696.994 505.974 697.895 505.978 698.813Z" fill="black"/>
<path fill-rule="evenodd" clip-rule="evenodd" d="M550.068 604.507C549.431 608.8 550.225 612.563 553.381 614.797C560.585 619.816 566.526 626.438 570.736 634.142C603.88 696.069 554.165 723.322 554.165 723.322L547.442 711.562C566.797 701.684 568.776 682.339 553.381 677.596C537.985 672.852 532.859 694.579 532.859 694.579L529.331 653.86C529.331 653.86 522.197 650.322 502.871 653.478C483.546 656.633 479.988 667.306 471.688 662.572C463.387 657.839 458.683 658.221 458.683 658.221C456.321 666.894 450 666.894 450 666.894C431.478 664.532 427.127 638.905 427.127 638.905C436.525 637.729 437.251 628.674 436.182 621.265C441.386 624.362 448.746 624.587 459.065 617.953C488.671 599.019 519.032 609.28 529.694 610.858C537.064 611.926 545.521 607.418 550.068 604.507V604.507Z" stroke="black" stroke-width="4.83" stroke-linecap="round" stroke-linejoin="round"/>
<path d="M567.159 911.6L574.48 908.66L579.968 923.468L579.105 950.339L571.687 951.682L543.531 950.467C543.531 950.467 545.491 934.081 551.479 926.29C557.467 918.499 567.159 911.6 567.159 911.6Z" fill="#3FBDF1"/>
<path d="M438.966 675.949C438.966 675.949 446.463 662.494 462.241 663.895" stroke="black" stroke-width="4.83"/>
<path d="M493.14 663.895C493.14 663.895 511.172 659.848 517.483 669.873" stroke="black" stroke-width="4.83"/>
<path d="M521.08 724.812C521.08 724.812 510.3 718.569 502.411 729.065" stroke="black" stroke-width="4.83"/>
<path d="M452.96 666.051C452.96 666.051 445.287 756.319 502.509 754.653C512.309 754.369 522.05 747.93 531.36 737.572" stroke="black" stroke-width="4.83"/>
<path d="M554.165 745.784L531.36 737.572C531.36 737.572 537.015 755.643 565.023 757.025C593.032 758.406 602.43 694.128 581.85 668.266" stroke="black" stroke-width="4.83" stroke-linejoin="round"/>
<path d="M643.325 926.868C643.325 926.868 622.421 943.832 636.622 951.721" stroke="black" stroke-width="4.83"/>
<path d="M627.155 911.081C627.155 911.081 590.895 931.602 622.03 951.721" stroke="black" stroke-width="4.83"/>
<path d="M614.924 895.303C614.924 895.303 566.797 917.843 603.88 951.721" stroke="black" stroke-width="4.83"/>
<path d="M817.314 951.721C817.314 951.721 875.702 951.721 876.486 895.303C877.27 838.884 763.267 697.215 689.493 677.507C615.718 657.8 612.553 711.807 612.553 714.022C612.553 716.237 608.221 739.502 627.155 764.326C641.776 783.514 706.358 831.416 735.014 852.232C737.169 853.799 738.129 856.537 737.426 859.107C736.722 861.678 734.501 863.544 731.848 863.796L605.115 875.967H605.036C603.841 876.183 559.113 884.434 545.491 898.448C545.491 898.448 537.857 904.103 541.807 912.786C545.756 921.469 557.888 918.607 558.222 918.284" stroke="black" stroke-width="4.83"/>
<circle opacity="0.26" cx="500.461" cy="693.285" r="15.778" fill="white"/>
<circle opacity="0.26" cx="460.418" cy="691.727" r="15.778" fill="white"/>
<path d="M596.804 909.111C591.258 907.562 582.193 906.171 572.853 909.17C568.286 910.641 564.072 913.04 560.476 916.216C559.692 916.902 558.937 917.598 558.212 918.293C556.649 919.826 555.173 921.446 553.792 923.144C553.61 923.369 553.352 923.519 553.067 923.566C549.588 924.046 526.685 927.672 526.803 939.246C526.911 949.644 538.298 951.349 542.218 951.623C542.545 951.653 542.87 951.546 543.113 951.326C543.357 951.106 543.498 950.795 543.502 950.467C543.502 946.762 544.345 935.149 553.508 923.468" stroke="black" stroke-width="4"/>
<path d="M390.455 827.428C393.141 849.076 376.314 858.866 357.919 860.317" stroke="black" stroke-width="4"/>
<path d="M331.185 855.799C316.817 848.038 308.825 832.131 311.173 815.972C314.113 795.147 331.753 779.173 349.021 769.039C385.281 747.764 466.993 763.159 480.723 766.295C491.248 768.706 500.049 760.474 503.616 756.495C503.925 756.151 504.407 756.018 504.849 756.155C505.291 756.292 505.613 756.673 505.674 757.132C513.21 801.232 600.734 861.091 620.981 874.487" stroke="black" stroke-width="4"/>
<path d="M412.535 812.453L383.556 830.436C380.064 832.611 375.815 833.206 371.86 832.075C367.904 830.943 364.613 828.19 362.8 824.498C359.448 817.696 361.889 809.461 368.405 805.584L412.505 779.31" stroke="black" stroke-width="4"/>
<circle cx="500.46" cy="693.285" r="15.778" stroke="black" stroke-width="4"/>
<circle cx="460.418" cy="691.727" r="13.4162" stroke="white" stroke-width="4"/>
<circle cx="460.418" cy="691.727" r="15.778" stroke="black" stroke-width="4"/>
<path d="M484.761 691.727H476.196" stroke="black" stroke-width="4"/>
<path d="M484.761 714.022H479.116C478.397 714.023 477.716 713.703 477.257 713.15C476.798 712.596 476.61 711.867 476.745 711.161L480.478 691.727" stroke="black" stroke-width="4"/>
<path d="M371.502 767.873C371.502 767.873 351.383 772.215 344.288 802.595C339.976 821.038 334.057 844.568 330.078 860.209C329.043 864.275 329.944 868.59 332.519 871.903C335.094 875.215 339.054 877.153 343.249 877.153C349.617 877.154 355.132 872.735 356.518 866.52L364.936 828.751" stroke="black" stroke-width="4"/>
<path d="M389.897 838.884C389.897 838.884 411.016 826.262 452.617 838.884C494.218 851.506 542.042 860.072 557.82 826.595" stroke="black" stroke-width="4"/>
<path d="M572.863 909.17C572.863 909.17 587.563 925.947 578.625 951.721" stroke="black" stroke-width="4"/>
<path d="M87.1063 700.537H319.366C334.765 700.517 348.171 711.051 351.794 726.017L388.77 879.152C390.792 887.524 388.862 896.361 383.534 903.128C378.207 909.895 370.07 913.845 361.457 913.844H129.795C114.428 913.858 101.044 903.361 97.3963 888.433L59.8231 735.327C57.7674 726.947 59.6768 718.086 65.0019 711.296C70.327 704.505 78.477 700.539 87.1063 700.537Z" fill="#3FBDF1"/>
<path d="M95.5638 707.123H313.477C327.923 707.142 340.488 717.028 343.906 731.064L378.617 874.723C380.516 882.576 378.708 890.866 373.71 897.215C368.713 903.564 361.08 907.269 353 907.268H135.616C121.217 907.238 108.688 897.405 105.236 883.425L69.9564 739.757C68.0262 731.893 69.8186 723.578 74.8174 717.207C79.8162 710.837 87.4663 707.118 95.5638 707.123V707.123Z" fill="#3FBDF1"/>
<path fill-rule="evenodd" clip-rule="evenodd" d="M87.1063 700.537H319.366C334.765 700.517 348.171 711.051 351.794 726.017L388.77 879.152C390.792 887.524 388.862 896.361 383.534 903.128C378.207 909.895 370.07 913.845 361.457 913.844H129.795C114.428 913.858 101.044 903.361 97.3963 888.433L59.8231 735.327C57.7674 726.947 59.6768 718.086 65.0019 711.296C70.327 704.505 78.477 700.539 87.1063 700.537V700.537Z" stroke="black" stroke-width="4.83"/>
<path fill-rule="evenodd" clip-rule="evenodd" d="M182.039 737.983L195.886 802.536C196.261 804.34 195.808 806.217 194.651 807.651C193.516 809.065 191.809 809.898 189.996 809.925L123.68 810.709H123.552C121.755 810.704 120.058 809.878 118.946 808.465C118.335 807.761 117.91 806.916 117.712 806.005L101.689 740.698C101.237 738.886 101.643 736.966 102.791 735.493C103.939 734.02 105.701 733.157 107.569 733.152H176.09C178.965 733.155 181.446 735.17 182.039 737.983ZM106.5 738.414C106.251 738.733 106.164 739.15 106.265 739.541L121.465 801.566C123.131 794.108 128.874 782.779 148.748 793.128C148.748 793.128 152.737 754.124 187.948 788.12L177.403 738.953C177.277 738.329 176.727 737.882 176.09 737.885H107.569C107.15 737.887 106.755 738.082 106.5 738.414Z" fill="#D7E8F0"/>
<path d="M126.052 762.973C129.874 761.787 131.687 756.721 130.119 751.654C128.551 746.588 124.17 743.452 120.319 744.637C116.467 745.823 114.684 750.89 116.261 755.947C117.839 761.003 122.239 764.159 126.052 762.973Z" fill="#D7E8F0"/>
<path d="M142.829 761.817H165.31H173.699H174.101C174.887 761.838 175.669 761.691 176.394 761.386C177.414 760.88 178.082 759.864 178.143 758.727C178.204 757.591 177.648 756.509 176.688 755.898C176.16 755.658 175.679 755.326 175.267 754.918C174.994 754.487 174.808 754.008 174.718 753.506C174.199 752.088 173.196 750.897 171.886 750.145C169.96 748.849 167.59 748.393 165.32 748.881C164.212 749.16 163.197 749.728 162.38 750.527C161.684 751.213 161.547 752.134 161.008 752.899C160.655 753.399 160.43 753.242 159.95 752.967C159.47 752.693 159.205 752.487 158.813 752.291C158.04 751.877 157.237 751.52 156.412 751.223C154.731 750.6 152.938 750.337 151.149 750.449C148.004 750.694 144.868 752.566 143.77 755.525C141.727 755.552 140.007 757.061 139.713 759.083C139.581 759.848 139.821 760.63 140.36 761.19C141.074 761.703 141.956 761.927 142.829 761.817Z" fill="#D7E8F0"/>
<path fill-rule="evenodd" clip-rule="evenodd" d="M302.197 753.007L304 760.425C305.335 765.899 304.083 771.682 300.605 776.114C297.127 780.546 291.808 783.137 286.174 783.142H261.556C251.231 783.148 242.186 776.225 239.496 766.256L237.448 758.72C235.941 753.195 237.099 747.282 240.578 742.733C244.057 738.183 249.459 735.517 255.186 735.523H279.951C290.513 735.516 299.708 742.741 302.197 753.007ZM268.308 767.462L276.766 762.258H276.805C277.613 761.782 278.087 760.895 278.036 759.959C277.984 759.023 277.415 758.193 276.56 757.809L264.829 752.624C263.927 752.237 262.883 752.404 262.147 753.054C261.412 753.704 261.117 754.72 261.389 755.662L264.574 766.07C264.799 766.82 265.362 767.421 266.095 767.694C266.829 767.967 267.648 767.881 268.308 767.462Z" fill="white"/>
<path d="M298.473 827.065H255.147C251.094 827.058 247.428 824.66 245.798 820.95C245.551 820.391 245.417 819.788 245.406 819.176C245.427 816.717 247.425 814.732 249.884 814.727H295.944C293.779 818.392 294.876 823.459 298.473 827.065Z" fill="#D7E8F0"/>
<path d="M326.54 822.616C326.535 825.071 324.546 827.06 322.091 827.065H298.473C294.876 823.459 293.779 818.392 295.944 814.727H316.74C320.786 814.729 324.45 817.114 326.089 820.813C326.36 821.377 326.514 821.991 326.54 822.616Z" fill="#3FBDF1"/>
<path d="M315.652 827.065C315.53 827.301 315.389 827.527 315.231 827.741C312.134 831.965 305.431 832.357 300.227 828.555C299.605 828.103 299.019 827.606 298.473 827.065C294.876 823.459 293.779 818.392 295.944 814.727C296.066 814.493 296.207 814.27 296.366 814.061C299.433 809.807 306.166 809.435 311.34 813.208C311.968 813.67 312.561 814.178 313.114 814.727C316.74 818.333 317.789 823.4 315.652 827.065Z" fill="white"/>
<path d="M337.389 849.86C337.367 852.32 335.37 854.304 332.91 854.309H161.194C163.39 850.624 162.292 845.577 158.686 841.981H327.647C331.697 841.98 335.363 844.376 336.987 848.086C337.241 848.644 337.377 849.248 337.389 849.86Z" fill="#3FBDF1"/>
<path d="M161.194 854.26H139.801C135.755 854.261 132.089 851.875 130.452 848.174C130.2 847.606 130.066 846.993 130.06 846.371C130.057 845.191 130.525 844.059 131.361 843.226C132.196 842.392 133.329 841.927 134.509 841.932H158.686C162.292 845.528 163.39 850.575 161.194 854.26Z" fill="#D7E8F0"/>
<path d="M161.194 854.26C161.094 854.502 160.962 854.729 160.802 854.936C157.735 859.19 151.002 859.552 145.818 855.779C145.194 855.317 144.604 854.809 144.054 854.26C140.477 850.654 139.38 845.617 141.516 841.932C141.635 841.694 141.776 841.467 141.937 841.256C145.034 837.032 151.737 836.64 156.941 840.432C157.562 840.884 158.146 841.386 158.686 841.932C162.292 845.528 163.39 850.575 161.194 854.26Z" fill="white"/>
<path d="M176.345 881.22H149.16C145.115 881.216 141.452 878.831 139.811 875.134C139.541 874.587 139.388 873.989 139.36 873.38C139.365 870.914 141.363 868.917 143.829 868.911H173.788C171.7 872.616 172.768 877.653 176.345 881.22Z" fill="#3FBDF1"/>
<path d="M346.709 876.839C346.676 879.287 344.668 881.247 342.22 881.22H176.345C172.768 877.614 171.671 872.576 173.807 868.892H336.967C341.017 868.891 344.683 871.287 346.307 874.997C346.566 875.577 346.703 876.204 346.709 876.839Z" fill="#D7E8F0"/>
<path d="M193.515 881.22C193.396 881.458 193.255 881.685 193.094 881.896C190.026 886.149 183.294 886.512 178.119 882.739C177.492 882.277 176.899 881.769 176.345 881.22C172.768 877.614 171.671 872.576 173.807 868.892C173.93 868.656 174.071 868.43 174.229 868.215C177.325 863.992 184.029 863.619 189.232 867.392C189.855 867.842 190.439 868.343 190.977 868.892C194.583 872.527 195.681 877.594 193.515 881.22Z" fill="white"/>
<g opacity="0.21">
<path fill-rule="evenodd" clip-rule="evenodd" d="M184.44 740.345L198.258 804.898C198.635 806.691 198.193 808.559 197.053 809.994C195.921 811.405 194.217 812.236 192.408 812.257L126.101 813.051H125.944C124.145 813.052 122.444 812.229 121.328 810.817C120.72 810.113 120.299 809.267 120.103 808.357L104.08 743.04C103.622 741.247 104.021 739.344 105.158 737.885C106.305 736.395 108.08 735.522 109.96 735.523H178.492C181.366 735.518 183.85 737.531 184.44 740.345ZM108.872 740.786C108.617 741.102 108.526 741.52 108.627 741.913L123.847 803.927C125.503 796.47 131.256 785.141 151.12 795.49C151.12 795.49 155.099 756.476 190.32 790.482L179.775 741.315C179.641 740.693 179.088 740.252 178.452 740.257H109.931C109.514 740.255 109.121 740.452 108.872 740.786Z" fill="#D7E8F0"/>
<path d="M128.423 765.335C132.236 764.149 134.058 759.083 132.481 754.026C130.903 748.969 126.542 745.813 122.681 746.999C118.819 748.185 117.046 753.252 118.614 758.318C120.182 763.385 124.66 766.56 128.423 765.335Z" fill="#D7E8F0"/>
<path d="M145.24 764.188H167.711H176.11H176.502C177.289 764.21 178.071 764.063 178.795 763.757C179.82 763.256 180.493 762.239 180.554 761.099C180.615 759.96 180.055 758.877 179.089 758.269C178.566 758.021 178.086 757.69 177.668 757.289C177.404 756.851 177.218 756.37 177.119 755.868C176.6 754.455 175.601 753.269 174.297 752.517C172.369 751.216 169.994 750.759 167.721 751.252C166.631 751.534 165.636 752.103 164.84 752.899C164.134 753.585 164.007 754.496 163.468 755.27C163.115 755.77 162.89 755.613 162.41 755.329C161.929 755.045 161.665 754.859 161.273 754.653C160.499 754.242 159.697 753.889 158.872 753.595C157.191 752.969 155.399 752.702 153.609 752.811C150.463 753.056 147.327 754.937 146.22 757.887C144.177 757.919 142.462 759.432 142.173 761.454C142.045 762.217 142.28 762.997 142.81 763.561C143.517 764.057 144.381 764.28 145.24 764.188Z" fill="#D7E8F0"/>
<path fill-rule="evenodd" clip-rule="evenodd" d="M304.608 755.378L306.411 762.787C307.736 768.264 306.475 774.046 302.99 778.474C299.505 782.902 294.18 785.486 288.545 785.484H263.928C253.6 785.491 244.552 778.569 241.858 768.598L239.81 761.052C238.314 755.531 239.477 749.628 242.954 745.086C246.432 740.544 251.827 737.881 257.548 737.885H282.352C292.918 737.881 302.115 745.11 304.608 755.378ZM270.68 769.833L279.167 764.6C279.956 764.113 280.414 763.232 280.359 762.306C280.304 761.38 279.744 760.56 278.902 760.17L267.26 754.996C266.36 754.611 265.319 754.778 264.584 755.424C263.849 756.071 263.552 757.083 263.82 758.024L266.956 768.442C267.178 769.191 267.739 769.792 268.471 770.066C269.203 770.339 270.021 770.253 270.68 769.833Z" fill="#D7E8F0"/>
<path d="M300.844 829.427H257.519C253.469 829.419 249.805 827.026 248.169 823.322C247.549 821.946 247.675 820.349 248.503 819.087C249.331 817.826 250.747 817.076 252.256 817.099H298.316C296.16 820.754 297.238 825.83 300.844 829.427Z" fill="#D7E8F0"/>
<path d="M328.853 824.978C328.853 827.431 326.867 829.422 324.413 829.427H300.844C297.238 825.83 296.14 820.754 298.306 817.099H319.112C323.159 817.095 326.826 819.482 328.461 823.184C328.712 823.749 328.845 824.36 328.853 824.978Z" fill="#3FBDF1"/>
<path d="M318.014 829.427C317.899 829.667 317.757 829.894 317.593 830.103C314.496 834.327 307.793 834.719 302.589 830.926C301.97 830.472 301.387 829.971 300.844 829.427C297.238 825.83 296.14 820.754 298.306 817.099C298.429 816.86 298.573 816.634 298.737 816.422C301.805 812.169 308.537 811.807 313.712 815.58C314.34 816.042 314.933 816.549 315.486 817.099C319.063 820.705 320.16 825.742 318.014 829.427Z" fill="white"/>
<path d="M339.751 852.183C339.729 854.641 337.73 856.622 335.272 856.622H163.566C165.761 852.937 164.664 847.9 161.057 844.294H330.009C334.064 844.293 337.734 846.694 339.359 850.409C339.61 850.967 339.744 851.571 339.751 852.183Z" fill="#3FBDF1"/>
<path d="M163.566 856.622H142.163C138.12 856.619 134.458 854.239 132.814 850.546C132.567 849.976 132.434 849.364 132.422 848.743C132.422 846.286 134.414 844.294 136.871 844.294H161.057C164.664 847.9 165.761 852.937 163.566 856.622Z" fill="#D7E8F0"/>
<path d="M163.566 856.622C163.466 856.866 163.33 857.093 163.164 857.298C160.097 861.551 153.364 861.924 148.19 858.151C147.562 857.685 146.969 857.174 146.416 856.622C142.839 853.025 141.741 847.978 143.888 844.294C144.003 844.053 144.144 843.827 144.309 843.617C147.406 839.394 154.109 839.002 159.313 842.804C159.929 843.258 160.512 843.756 161.057 844.294C164.664 847.9 165.761 852.937 163.566 856.622Z" fill="white"/>
<path d="M178.707 883.621H151.483C147.442 883.613 143.781 881.235 142.133 877.545C141.887 876.985 141.754 876.383 141.741 875.771C141.752 873.302 143.751 871.303 146.22 871.293H176.179C174.032 874.977 175.13 880.024 178.707 883.621Z" fill="#3FBDF1"/>
<path d="M349.08 879.201C349.077 880.378 348.607 881.505 347.772 882.334C346.938 883.163 345.807 883.626 344.631 883.621H178.707C175.13 880.024 174.032 874.977 176.179 871.293H339.329C343.384 871.292 347.054 873.693 348.678 877.408C348.933 877.972 349.069 878.582 349.08 879.201Z" fill="#D7E8F0"/>
<path d="M195.886 883.621C195.764 883.859 195.62 884.086 195.455 884.297C192.388 888.55 185.655 888.923 180.481 885.15C179.853 884.684 179.26 884.173 178.707 883.621C175.13 880.024 174.032 874.977 176.179 871.293C176.294 871.052 176.435 870.826 176.6 870.616C179.697 866.393 186.4 866.03 191.604 869.803C192.22 870.257 192.803 870.755 193.348 871.293C196.955 874.899 198.052 879.966 195.886 883.621Z" fill="white"/>
</g>
</svg>
