<svg width="1000" height="1000" viewBox="0 0 1000 1000" fill="none" xmlns="http://www.w3.org/2000/svg">
<path d="M183.665 458.301C215.917 413.221 264.25 392.788 264.25 392.788C265.828 392.131 259.105 330.372 258.968 325.991C256.93 253.844 268.896 178.776 323.129 126.679C390.925 61.597 513.935 48.1122 591.708 102.943C590.728 102.218 617.295 81.2754 619.54 79.9328C634.055 71.1725 650.435 65.9646 667.344 64.733C735.395 59.833 797.802 113.302 823.331 177.982C848.86 242.662 842.999 390.034 796.165 432.537" stroke="#CCDDE2" stroke-width="5.05"/>
<path d="M154.589 536.505C156.265 518.75 160.83 501.388 168.103 485.104C168.796 483.556 169.521 482.04 170.279 480.557" stroke="#CCDDE2" stroke-width="5.05"/>
<path d="M238.693 724.116C230.853 716.992 223.591 709.74 216.937 702.448" stroke="#CCDDE2" stroke-width="5.05"/>
<path d="M892 512.23C892.059 517.13 892 522.128 891.765 527.136C890.373 558.114 883.739 590.131 867.157 616.218C864.139 621.032 860.772 625.617 857.083 629.938C821.803 625.283 816.54 589.298 775.743 568.953C726.87 544.521 646.843 553.273 646.843 553.273L686.269 516.905C684.162 407.38 603.753 414.103 603.753 414.103L599.666 424.109C602.769 415.047 605.909 406.596 609.084 398.756L609.26 398.345C646.5 305.852 685.083 294.386 715.1 281.029C722.271 279.325 729.613 278.451 736.984 278.422C813.727 278.01 858.768 356.165 878.466 419.081C883.366 434.761 890.902 468.297 891.912 506.007C891.931 508.026 892 510.133 892 512.23Z" fill="#2E2E2E"/>
<path d="M935.12 922.733C929.162 930.935 919.332 935.404 909.199 935.404H792.775C783.728 935.533 775.048 931.835 768.873 925.222C768.814 925.222 768.873 925.222 768.873 925.222C768.459 924.803 768.073 924.358 767.717 923.889C764.068 919.37 761.787 913.903 761.141 908.131C760.553 902.829 764.492 898.115 769.824 898.331C774.001 898.493 777.417 901.716 777.82 905.877C777.82 906.298 777.909 906.71 777.967 907.121C778.399 909.513 779.45 911.75 781.015 913.609C783.821 916.925 787.993 918.771 792.334 918.617H909.699C913.951 918.69 918.022 916.9 920.842 913.717C924.038 910.018 925.051 904.91 923.507 900.271L871.087 744.402C870.659 743.207 870.152 742.041 869.568 740.913C863.285 727.639 849.845 719.241 835.16 719.412C813.091 719.677 785.072 719.736 782.436 719.736C723.705 719.52 696.98 719.52 682.28 719.912C683.288 716.3 685.112 712.967 687.611 710.171C687.611 710.171 687.67 710.112 687.67 710.083C691.255 706.262 696.162 703.952 701.39 703.624C723.166 701.841 744.726 698.587 765.668 692.903C802.624 682.888 837.875 665.708 862.365 638.082C874.286 624.709 883.297 609.004 888.825 591.963C893.116 578.432 895.819 564.449 896.881 550.294C897.26 545.825 897.495 541.323 897.586 536.789V536.583C897.586 535.545 897.645 534.476 897.645 533.438C897.778 526.98 897.484 520.521 896.763 514.102C903.163 514.152 909.292 516.69 913.854 521.178C914.255 522.234 914.55 523.327 914.736 524.441C914.914 525.497 915.002 526.566 915.001 527.636V654.399C915.022 671.888 908.037 688.657 895.607 700.959C885.415 711.053 882.514 726.37 887.345 739.845L939.442 894.862C942.637 904.301 941.024 914.705 935.12 922.733Z" fill="#3FBDF1"/>
<path d="M216.946 918.823V563.445H238.692V918.97L216.946 918.823Z" fill="#2E2E2E"/>
<path d="M646.854 553.224C662.426 551.568 680.438 549.608 697.735 550" stroke="black" stroke-width="5.05"/>
<path d="M562.024 568.923C534.447 575.881 507.614 585.926 484.722 602.626C446.306 630.614 428.744 682.829 444.444 728.066C444.444 728.124 506.184 906.22 506.184 906.22H489.935C482.862 906.217 476.081 909.039 471.1 914.06C466.268 918.862 463.887 926.868 463.887 934.218H610.132L554.556 752.428C551.745 743.34 553.429 733.457 559.092 725.813C564.754 718.168 573.718 713.677 583.231 713.718C614.895 714.61 644.305 715.825 676.331 714.434" stroke="black" stroke-width="5.05"/>
<path d="M892.225 528.616V528.42C890.804 490.2 888.883 452.49 878.427 419.052C858.729 356.136 813.688 277.981 736.944 278.393C729.574 278.421 722.231 279.296 715.061 280.999C664.473 293.024 629.34 344.856 609.221 398.315L609.044 398.727C607.123 403.855 605.346 408.971 603.713 414.074C602.606 417.507 601.24 420.852 599.626 424.079C587.012 449.499 560.095 464.576 531.83 462.054C438.926 453.607 316.485 448.785 277.922 514.063" stroke="black" stroke-width="5.05"/>
<path d="M740.198 457.527C726.674 473.854 712.434 489.622 697.715 504.871C667.58 536.113 641.58 569.296 594.815 571.511C557.506 573.304 521.991 558.986 486.711 549.059C448.971 538.445 429.871 529.959 394.699 519.237C384.569 516.162 374.06 514.512 363.476 514.337L328.068 514.612" stroke="black" stroke-width="5.05"/>
<path d="M602.097 908.513C605.468 907.001 609.123 906.226 612.818 906.239H629.106C629.106 906.239 595.06 840.06 567.836 796.009" stroke="black" stroke-width="5.05"/>
<path d="M624.461 714.581L738.337 935.404H609.525H586.162" stroke="black" stroke-width="5.05"/>
<path fill-rule="evenodd" clip-rule="evenodd" d="M935.12 922.733C929.161 930.935 919.332 935.404 909.199 935.404H792.775C783.122 935.404 773.704 931.406 767.687 923.86C764.039 919.341 761.757 913.873 761.111 908.101C760.523 902.8 764.463 898.086 769.794 898.301C773.971 898.463 777.387 901.686 777.791 905.847C778.029 908.693 779.145 911.395 780.985 913.58C783.831 916.842 787.976 918.676 792.304 918.587H909.699C913.95 918.66 918.021 916.87 920.841 913.687C924.038 909.989 925.05 904.88 923.507 900.242L871.087 744.402C865.646 729.278 851.232 719.252 835.16 719.412C813.09 719.677 785.072 719.736 782.436 719.736C717.04 719.53 691.296 719.53 677.654 720.03C677.225 720.027 676.815 719.854 676.514 719.549C676.212 719.244 676.044 718.832 676.047 718.403C676.028 712.352 678.248 706.509 682.28 701.998C682.312 701.974 682.333 701.939 682.339 701.9C685.928 698.088 690.833 695.782 696.059 695.451C717.834 693.668 739.394 690.414 760.337 684.73C797.293 674.714 832.543 657.535 857.033 629.909C868.954 616.536 877.965 600.831 883.493 583.79C887.772 570.264 890.466 556.287 891.52 542.14C891.905 537.658 892.14 533.157 892.225 528.636V528.42C892.225 527.391 892.284 526.323 892.284 525.284C892.417 518.826 892.123 512.367 891.402 505.949C902.064 505.89 912.815 513.642 914.677 524.461C914.854 525.516 914.943 526.585 914.942 527.656V654.399C914.963 671.888 907.978 688.657 895.547 700.959C885.355 711.053 882.455 726.37 887.286 739.845L939.383 894.862C942.594 904.291 941.003 914.694 935.12 922.733V922.733Z" stroke="black" stroke-width="5.05"/>
<rect x="59" y="536.515" width="330.231" height="26.9206" rx="13.4603" stroke="black" stroke-width="5.05"/>
<rect x="159.695" y="920.508" width="137.719" height="15.0724" rx="7.5362" stroke="black" stroke-width="5.05"/>
<path fill-rule="evenodd" clip-rule="evenodd" d="M199.982 524.431V525.784C200.178 535.084 208.93 536.505 216.476 536.564L362.359 536.466C368.748 536.466 374.021 531.566 374.03 525.549V525.294C373.913 519.414 368.778 514.622 362.466 514.612C362.466 514.612 280.852 514.318 217.642 514.132C216.505 517.444 213.624 520.012 210.027 522.109C206.933 523.731 203.474 524.531 199.982 524.431Z" stroke="black" stroke-width="5.05"/>
<path fill-rule="evenodd" clip-rule="evenodd" d="M119.76 393.406C119.791 394.954 120.234 396.466 121.044 397.786L188.664 511.358C190.433 514.12 193.275 516.017 196.504 516.592C199.206 517.124 202.006 516.82 204.53 515.719C208.676 513.877 211.067 510.163 210.989 506.399C210.974 505.926 210.925 505.455 210.842 504.988C210.634 503.95 210.249 502.956 209.705 502.048L142.085 388.476C139.145 383.508 131.952 381.557 126.17 384.115C122.044 385.918 119.653 389.633 119.76 393.406V393.406Z" stroke="black" stroke-width="5.05"/>
<path d="M302.608 514.612C302.608 514.612 310.752 506.86 329.48 494.551" stroke="black" stroke-width="5.05"/>
<path d="M369.014 387.212L339.329 420.13C335.036 424.894 327.764 425.458 322.787 421.414C320.11 419.24 318.491 416.024 318.341 412.579C318.192 409.134 319.525 405.789 322.003 403.392L327.432 398.139C327.638 397.845 327.873 397.58 328.108 397.306L332.028 392.984L365.74 356.352C374.053 347.215 386.434 342.92 398.619 344.944L399.119 345.033" stroke="black" stroke-width="5.05"/>
<path d="M410.82 396.12H381.126C374.09 396.12 368.386 390.416 368.386 383.38C368.386 376.344 374.09 370.64 381.126 370.64H423.266" stroke="black" stroke-width="5.05"/>
<path d="M388.054 396.12C387.643 401.324 385.653 405.175 382.723 407.88C375.177 414.74 361.339 413.985 351.716 409.272" stroke="black" stroke-width="5.05"/>
<path d="M332.077 392.964C323.541 382.684 325.295 368.709 331.93 357.9C359.321 313.173 411.535 340.721 445.865 359.997C466.3 371.527 485.835 384.585 504.302 399.06C520.649 411.8 535.78 427.049 555.419 434.712C567.179 439.309 581.066 440.406 592.767 435.104" stroke="black" stroke-width="5.05"/>
<path d="M382.724 407.802C403.437 423.091 423.217 439.607 441.955 457.262" stroke="black" stroke-width="5.05"/>
<path d="M634.76 167.368C639.718 171.896 647.333 172.141 653.634 171.533C661.69 170.798 669.667 168.848 677.556 167.202L682.348 166.957H682.417C684.273 166.975 686.045 167.729 687.345 169.055C688.644 170.38 689.364 172.167 689.346 174.023C689.455 184.365 688.423 194.688 686.268 204.804L695.451 209.773C696.637 206.461 695.304 201.688 698.117 201.325C699.92 197.964 702.605 195.779 706.819 198.278C715.071 203.178 718.324 217.574 710.376 224.169L715.472 233.695C719.135 240.581 727.157 243.914 734.622 241.652L729.418 230.147C741.629 232.313 750.174 217.074 746.45 207.774C743.912 201.384 744.039 196.416 747.43 190.202C747.656 189.781 745.353 189.222 745.549 188.791C745.666 184.234 744.402 179.354 742.207 177.031C738.346 172.876 730.574 172.131 732.162 165.82C732.867 163.073 733.128 160.231 732.936 157.402C732.097 149.917 728.063 143.16 721.872 138.87C715.443 134.646 708.25 138.478 701.38 138.37C693.04 138.282 687.062 131.206 678.321 131.099C673.969 131.03 670.481 132.725 666.757 134.832C663.64 136.626 660.573 138.498 657.594 140.526C654.614 142.555 651.968 144.309 648.411 144.319C643.776 144.378 639.297 141.438 634.632 142.81C632.274 143.444 630.2 144.861 628.752 146.828C627.272 154.06 629.948 163.007 634.76 167.368Z" fill="#3FBDF1"/>
<path d="M695.49 208.695C696.088 206.142 696.969 203.664 698.117 201.306C699.92 197.944 702.615 195.759 706.819 198.258C715.071 203.158 718.324 217.554 710.376 224.15L715.472 233.675C719.135 240.561 727.157 243.895 734.622 241.633" stroke="black" stroke-width="5.05" stroke-linecap="round" stroke-linejoin="round"/>
<path d="M729.418 230.128L734.602 241.652C735.906 244.406 739.639 252.873 743.55 261.674C746.333 267.975 749.234 274.463 751.39 279.235" stroke="black" stroke-width="5.05" stroke-linecap="round" stroke-linejoin="round"/>
<path d="M645.441 188.742C645.441 188.742 660.72 184.94 667.393 196.523" stroke="black" stroke-width="5.05"/>
<path d="M649.94 223.326C645.824 224.453 640.287 225.463 637.111 221.876L644.03 207.313C645.71 203.742 646.125 199.705 645.206 195.867C643.697 189.409 639.924 179.599 643.971 171.083" stroke="black" stroke-width="5.05"/>
<ellipse cx="656.125" cy="201.34" rx="4.067" ry="4.7824" transform="rotate(-58.92 656.125 201.34)" fill="black"/>
<path d="M682.516 295.494L678.89 255.255" stroke="black" stroke-width="5.05"/>
<path d="M695.451 209.753C695.451 209.401 695.451 209.038 695.451 208.685C695.471 208.307 695.471 207.927 695.451 207.548" stroke="black" stroke-width="5.05" stroke-linecap="round" stroke-linejoin="round"/>
<path d="M695.461 209.763L692.305 208.068L686.269 204.785" stroke="black" stroke-width="5.05" stroke-linecap="round" stroke-linejoin="round"/>
<path d="M670.197 224.365C670.197 224.365 669.893 234.557 658.241 238.752" stroke="black" stroke-width="5.05"/>
<path d="M729.418 230.128C741.629 232.293 750.174 217.054 746.45 207.754C743.912 201.365 744.039 196.396 747.43 190.183C747.656 189.761 747.842 189.35 748.038 188.938C750.556 183.382 749.665 177.874 745.705 173.15C741.952 168.682 736.297 167.114 737.924 160.597C738.655 157.767 738.926 154.839 738.728 151.924C737.873 144.225 733.727 137.274 727.36 132.863C720.755 128.482 713.316 132.451 706.202 132.343C697.636 132.216 691.453 124.925 682.466 124.817C677.968 124.817 674.342 126.493 670.52 128.668C667.305 130.52 664.12 132.471 661.082 134.548C658.044 136.626 655.202 138.468 651.596 138.468C646.814 138.468 642.198 135.528 637.415 136.9C632.633 138.272 629.791 142.231 628.85 146.818C627.321 154.011 629.997 162.998 634.809 167.398C639.767 171.925 647.382 172.17 653.683 171.563C661.739 170.828 669.716 168.878 677.605 167.231L682.397 166.986H682.466C684.322 167.004 686.094 167.759 687.394 169.084C688.693 170.409 689.413 172.196 689.395 174.052C689.504 184.395 688.472 194.718 686.317 204.834" stroke="black" stroke-width="5.05"/>
<path d="M697.303 241.28C697.303 241.28 679.095 265.466 662.915 260.047C646.735 254.628 645.912 224.689 645.912 224.689" stroke="black" stroke-width="5.05" stroke-linecap="round" stroke-linejoin="round"/>
<path d="M216.947 918.823V563.445H238.693V918.97" stroke="black" stroke-width="5.05"/>
<circle cx="236.958" cy="321.552" r="35.1036" fill="#3FBDF1"/>
<path d="M223.229 330.607C222.202 329.905 221.29 329.049 220.524 328.069C217.72 324.597 217.951 319.577 221.063 316.377C223.051 314.33 225.884 313.333 228.717 313.682C228.081 309.689 230.167 305.757 233.83 304.045C237.494 302.332 241.848 303.254 244.505 306.303C247.239 309.4 248.523 314.006 249.003 318.063C249.251 320.181 249.284 322.318 249.101 324.443C249.013 325.511 248.63 331.675 247.631 332.067C241.026 334.596 229.765 335.144 223.229 330.607Z" fill="white"/>
<circle cx="484.633" cy="329.558" r="18.816" fill="#3FBDF1"/>
<path d="M483.34 320.836C483.913 320.491 484.538 320.242 485.192 320.101C487.518 319.543 489.896 320.803 490.739 323.041C491.277 324.475 491.114 326.077 490.298 327.373C492.332 328.02 493.713 329.908 493.713 332.043C493.713 334.177 492.332 336.066 490.298 336.712C488.054 337.203 485.715 337.033 483.565 336.222C482.482 335.857 481.438 335.384 480.449 334.811C479.949 334.527 477.039 332.939 477.088 332.361C477.372 328.559 479.675 322.973 483.34 320.836Z" fill="white"/>
<path d="M338.741 308.096C340.85 309.856 343.204 311.298 345.729 312.379C355.187 316.326 366.024 315.005 374.256 308.9C377.392 306.509 380.136 303.206 383.38 300.805C385.643 299.031 388.361 297.931 391.22 297.63C392.171 297.657 393.114 297.458 393.974 297.052C396.15 295.699 393.582 293.455 393.357 291.868C393.054 289.328 393.692 286.766 395.15 284.665C402.825 273.219 401.372 257.951 391.675 248.159C381.978 238.367 366.725 236.765 355.205 244.328C349.688 247.944 345.591 253.305 341.436 258.43C337.771 262.948 333.939 267.397 331.254 272.562C324.943 284.704 328.628 299.659 338.741 308.096Z" fill="#3FBDF1"/>
<circle cx="376.167" cy="261.791" r="6.2818" fill="white"/>
<circle cx="364.015" cy="276.648" r="6.2818" fill="white"/>
<circle cx="352.618" cy="290.594" r="6.2818" fill="white"/>
<path opacity="0.46" d="M534.3 231.764C533.306 236.747 530.115 241.015 525.617 243.377L473.226 271.209C469.236 273.339 464.561 273.792 460.236 272.468C455.911 271.144 452.291 268.152 450.177 264.153L408.419 185.528C404.013 177.225 407.167 166.922 415.465 162.508L467.895 134.685C475.784 130.491 486.672 133.705 490.905 141.732L532.673 220.328C534.553 223.827 535.129 227.88 534.3 231.764Z" fill="#3FBDF1"/>
<path d="M518.747 225.806L467.66 206.333C466.315 205.812 465.547 204.392 465.847 202.982L477.695 148.484C477.97 147.297 478.948 146.403 480.155 146.236C481.361 146.068 482.546 146.662 483.134 147.729L522.373 221.68C522.941 222.758 522.785 224.075 521.98 224.991C521.176 225.907 519.889 226.231 518.747 225.806Z" fill="white"/>
<path opacity="0.46" d="M595.06 286.478C597.231 288.035 598.579 290.493 598.725 293.161L600.685 324.315C600.835 326.691 600.034 329.028 598.458 330.811C596.882 332.595 594.662 333.678 592.286 333.821L545.53 336.703C540.597 336.999 536.354 333.247 536.044 328.314L534.133 297.14C533.958 292.252 537.64 288.083 542.512 287.654L589.258 284.714C591.34 284.598 593.395 285.222 595.06 286.478Z" fill="#3FBDF1"/>
<path d="M588.847 292.632L568.385 312.889C567.848 313.396 567.027 313.454 566.425 313.026L542.905 295.484C542.391 295.096 542.173 294.429 542.359 293.812C542.544 293.195 543.095 292.76 543.738 292.72L587.72 290.006C588.349 289.99 588.925 290.358 589.173 290.937C589.421 291.516 589.292 292.187 588.847 292.632Z" fill="white"/>
<g opacity="0.46">
<path d="M277.541 457.674C274.473 458.178 271.369 458.44 268.26 458.458C238.488 458.458 239.487 430.851 239.487 430.851L264.154 436.182C262.262 431.545 262.798 426.271 265.585 422.11C271.23 413.858 284.342 418.101 284.342 418.101L292.496 412.849L290.732 422.649L301.659 420.806L296.043 427.304C303.589 434.556 313.203 456.635 290.016 468.111C266.829 479.587 256.824 465.837 256.824 465.837L268.26 458.468L277.541 457.674Z" fill="#3FBDF1"/>
</g>
<circle cx="277.05" cy="427.108" r="3.5672" fill="white"/>
<path d="M339.231 935.404H747.176" stroke="black" stroke-width="3.15"/>
</svg>
