<svg width="1000" height="1000" viewBox="0 0 1000 1000" fill="none" xmlns="http://www.w3.org/2000/svg">
<ellipse cx="320.559" cy="573.642" rx="14.1065" ry="13.7718" transform="rotate(-43.3865 320.559 573.642)" fill="#CCDDE2"/>
<ellipse cx="358.406" cy="569.436" rx="13.9748" ry="13.6514" transform="rotate(-43.35 358.406 569.436)" fill="#CCDDE2"/>
<path d="M644.746 943.548C655.291 943.548 665.545 943.078 675.508 942.137C742.775 935.933 795.96 909.415 831.328 872.39C850.038 853.094 864.186 829.85 872.733 804.368C880.784 780.245 883.132 754.583 879.593 729.398C855.152 555.801 649.881 640.218 735.935 534.633C821.989 429.048 653.527 294.759 588.886 326.54C524.245 358.321 595.53 426.294 435.79 394.16C276.05 362.026 309.106 503.214 309.106 503.214" stroke="#CCDDE2" stroke-width="4.82"/>
<path d="M214.673 793.726C214.673 793.726 141.516 741.266 113.272 799.282C113.272 799.282 142.976 694.011 244.289 656.359C244.289 656.359 273.248 640.248 274.522 649.979C275.796 659.711 284.194 664.679 287.869 664.562C291.544 664.444 322.571 666.384 323.649 661.749C324.727 657.114 322.669 643.227 338.055 643.129C353.441 643.031 436.927 663.542 460.8 685.22C460.8 685.22 419.248 735.386 441.465 790.697L422.747 786.16C422.747 786.16 434.291 886.12 418.552 944.263H146.7C146.7 944.263 173.876 947.684 201.747 927.799L242.221 875.859C242.221 875.859 259.969 848.968 296.229 845.127C296.229 845.127 316.867 842.873 316.671 833.063C316.475 823.253 324.11 839.345 334.311 825.164C335.556 825.164 360.35 826.595 360.35 826.595C360.35 826.595 378.97 828.339 382.469 811.718C385.967 795.098 398.864 678.438 394.229 671.431C389.593 664.424 387.819 664.336 348.698 664.571C309.576 664.807 275.198 657.006 270.219 676.469C265.241 695.931 259.488 769.676 259.488 769.676C259.488 769.676 237.438 775.449 220.641 799.331C220.7 799.321 214.673 810.964 214.673 793.726Z" fill="#2E2E2E"/>
<path d="M214.673 758.298V804.221" stroke="black" stroke-width="4.82"/>
<path d="M421.492 781.26C464.661 804.192 583.966 851.046 588.2 670.834C588.2 670.834 583.065 623.509 596.452 617.335C609.838 611.161 631.428 591.61 603.625 544.276L621.765 526.176C625.067 522.778 626.305 517.877 625.013 513.318C623.721 508.76 620.095 505.237 615.502 504.077C610.908 502.917 606.045 504.295 602.743 507.693L566.689 545.913C566.689 545.913 561.466 536.113 552.205 541.219C542.944 546.325 508.977 567.992 524.402 613.239L484.281 728.487" stroke="black" stroke-width="4.82"/>
<path d="M566.64 545.893C566.64 545.893 576.253 560.525 555.791 575.48" stroke="black" stroke-width="4.82"/>
<path d="M609.544 555.644C609.544 555.644 615.532 574.45 591.375 586.583C582.829 590.875 573.451 581.84 577.488 573.167C577.557 573.039 577.616 572.902 577.684 572.765" stroke="black" stroke-width="4.82"/>
<path d="M616.855 578.87C616.855 578.87 611.573 597.236 597.118 598.118C584.329 598.892 586.475 585.848 586.475 585.848" stroke="black" stroke-width="4.82"/>
<path d="M369.562 567.365C368.582 567.62 367.965 566.807 367.053 566.963C353.951 564.572 344.21 554.223 343.112 549.245C343.484 551.96 348.463 551.685 347.62 554.459C347.463 554.988 347.15 554.782 346.895 555.292C346.483 556.272 346.493 554.929 345.915 555.811C342.7 551.058 340.838 548.696 340.27 546.08C340.656 548.888 340.429 551.747 339.604 554.459C339.452 554.989 339.252 555.504 339.006 555.997C337.046 560.623 332.959 564.533 326.129 565.503C324.416 565.72 322.687 565.776 320.964 565.67C316.064 565.386 311.83 565.101 308.224 564.945C296.17 564.406 291.848 565.317 293.201 573.098C293.946 576.618 295.002 580.065 296.356 583.398C298.747 589.69 300.413 600.587 297.963 612.455V612.524C295.121 626.342 286.125 637.024 266.848 647.059C263.433 648.822 259.911 650.37 256.304 651.694C222.856 664.101 142.849 695.53 109.686 810.778C106.158 823.057 103.522 834.229 101.66 844.431L100.748 843.902C78.1004 830.329 63.3318 799.88 67.8202 773.685C70.0546 760.68 78.5218 751.605 89.3802 744.775C97.0046 740.051 105.158 736.18 111.989 730.349C134.627 711.014 116.526 680.947 129.06 657.829C143.192 631.82 165.32 615.787 194.211 614.464C201.482 614.778 209.665 615.63 217.603 615.248C229.128 615.66 240.908 614.719 249.346 607.163C255.99 601.283 257.372 591.699 259.89 583.702C262.726 574.684 265.091 565.525 266.976 556.262C268.7 547.48 271.915 539.057 276.482 531.36C281.412 523.019 288.366 516.056 296.699 511.113C303.969 507.01 312.074 504.608 320.405 504.087C327.992 504.534 335.372 506.735 341.965 510.515C344.217 511.846 346.345 513.374 348.326 515.082C362.918 527.528 369.905 548.598 369.562 567.365Z" fill="#3FBDF1"/>
<path d="M590.964 597.02C590.964 597.02 586.289 602.822 588.847 608.329C591.405 613.837 597.755 615.121 603.929 612.71" stroke="black" stroke-width="4.82"/>
<path d="M603.606 544.277L590.689 557.183" stroke="black" stroke-width="4.82"/>
<path d="M259.537 768.412L270.053 677.762C270.933 670.17 277.364 664.443 285.007 664.444H381.577C385.85 664.442 389.923 666.256 392.779 669.434C395.636 672.613 397.007 676.855 396.551 681.104L382.478 811.728C381.652 819.376 375.196 825.173 367.504 825.174H332.949" stroke="black" stroke-width="4.82"/>
<circle cx="373.678" cy="683.593" r="3.9396" fill="black"/>
<path d="M308.645 789.443C318.837 791.736 320.876 791.776 330.764 793.246C336.997 794.177 351.246 794.951 351.501 785.278C351.736 776.782 342.2 771.793 335.468 769.079C327.697 766.124 319.566 764.222 311.291 763.424C307.881 763.032 304.454 762.764 301.011 762.621C277.148 761.641 249.62 767.413 233.185 786.082C195.112 829.28 144.485 857.053 144.485 857.053" stroke="black" stroke-width="4.82"/>
<path d="M335.938 793.726C340.838 795.803 349.138 800.233 345.738 808.72C344.189 812.64 341.377 814.031 337.516 814.6C329.176 815.805 320.228 814.031 312.036 812.316C309.007 811.679 303.637 810.513 300.648 809.69" stroke="black" stroke-width="4.82"/>
<path d="M327.226 814.795C327.226 814.795 336.134 814.688 333.988 822.969C330.45 836.689 302.961 830.475 290.104 827.594" stroke="black" stroke-width="4.82"/>
<path d="M327.774 643.874C369.66 645.706 433.487 657.986 491.366 708.054" stroke="black" stroke-width="4.82"/>
<path d="M644.746 943.558L146.7 944.303" stroke="black" stroke-width="4.82"/>
<path d="M421.492 762.522C421.492 762.522 431.292 853.731 421.492 943.558" stroke="black" stroke-width="4.82"/>
<path opacity="0.54" d="M853.986 720.863L940.118 500.157C942.282 491.504 940.339 482.337 934.85 475.305C929.362 468.274 920.941 464.164 912.022 464.161H569.855C554.04 464.159 540.287 474.999 536.594 490.376L442.278 711.033C440.204 719.662 442.199 728.765 447.692 735.735C453.185 742.706 461.569 746.773 470.444 746.774H820.794C836.492 746.775 850.177 736.092 853.986 720.863Z" fill="white"/>
<path d="M853.986 720.863L940.118 500.157C942.282 491.504 940.339 482.337 934.85 475.305C929.362 468.274 920.941 464.164 912.022 464.161H569.855C554.04 464.159 540.287 474.999 536.594 490.376L442.278 711.033C440.204 719.662 442.199 728.765 447.692 735.735C453.185 742.706 461.569 746.773 470.444 746.774H820.794C836.492 746.775 850.177 736.092 853.986 720.863Z" fill="#3FBDF1"/>
<path fill-rule="evenodd" clip-rule="evenodd" d="M853.986 720.863L940.118 500.157C942.282 491.504 940.339 482.337 934.85 475.305C929.362 468.274 920.941 464.164 912.022 464.161H569.855C554.04 464.159 540.287 474.999 536.594 490.376L442.278 711.033C440.204 719.662 442.199 728.765 447.692 735.735C453.185 742.706 461.569 746.773 470.444 746.774H820.794C836.492 746.775 850.177 736.092 853.986 720.863V720.863Z" stroke="black" stroke-width="4.82" stroke-linecap="square" stroke-linejoin="round"/>
<path d="M841.383 711.925L920.852 508.31C922.845 500.33 921.053 491.876 915.992 485.391C910.931 478.906 903.166 475.113 894.94 475.108H579.253C564.663 475.104 551.973 485.106 548.569 499.294L461.555 702.86C459.643 710.82 461.485 719.218 466.553 725.648C471.622 732.077 479.358 735.828 487.545 735.827H810.768C825.246 735.821 837.865 725.969 841.383 711.925Z" fill="#3FBDF1"/>
<path d="M602.027 512.544C606.212 506.262 613.062 503.469 617.325 506.301C621.588 509.134 621.647 516.533 617.462 522.814C616.813 523.78 616.078 524.685 615.267 525.519L646.284 591.003C651.184 587.7 656.672 586.887 660.572 589.484C663.091 591.16 664.492 594.011 664.933 597.324L686.121 590.17L704.653 583.976C706.613 583.3 708.681 582.653 710.699 582.016C711.461 579.741 712.519 577.576 713.845 575.578C719.725 566.758 729.339 562.838 735.317 566.758C741.295 570.678 741.373 580.938 735.66 589.709L770.94 637.955C778.633 631.643 787.698 629.693 793.98 633.868C802.525 639.552 802.653 654.389 794.264 667.002C793.931 667.502 793.549 667.913 793.196 668.393L816.716 700.528C816.784 700.626 816.873 700.743 816.931 700.841C818.549 703.281 818.742 706.399 817.437 709.02C816.133 711.641 813.529 713.367 810.607 713.548C807.684 713.729 804.888 712.337 803.27 709.896L782.386 678.389C775.781 682.221 768.764 682.956 763.619 679.526C755.446 674.097 755.054 660.338 762.336 648.166L728.516 597.138C723.528 600.528 718.02 601.391 714.071 598.774C711.865 597.218 710.362 594.855 709.886 592.198C709.043 592.424 708.21 592.669 707.367 592.904L688.522 598.049L664.404 604.546C663.666 607.437 662.447 610.184 660.798 612.671C654.918 621.491 645.314 625.411 639.326 621.442C633.338 617.473 633.25 607.075 639.12 598.245C639.996 596.964 640.979 595.761 642.06 594.648L612.533 527.881C608.975 530.302 605.046 530.929 602.233 529.057C597.911 526.235 597.843 518.836 602.027 512.544Z" fill="white"/>
<path d="M826.644 516.16H872.4C876.677 516.159 880.55 513.629 882.268 509.712C882.537 509.124 882.681 508.486 882.69 507.84C882.668 505.24 880.557 503.141 877.956 503.136H829.28C831.602 507.007 830.446 512.358 826.644 516.16Z" fill="#D7E8F0"/>
<path d="M797.058 511.466C797.063 514.06 799.167 516.16 801.762 516.16H826.644C830.446 512.358 831.603 507.007 829.319 503.136H807.348C803.075 503.134 799.204 505.655 797.479 509.565C797.213 510.164 797.069 510.81 797.058 511.466H797.058Z" fill="#3FBDF1"/>
<path d="M808.504 516.16C808.633 516.411 808.784 516.651 808.955 516.876C812.218 521.335 819.294 521.776 824.802 517.738C825.453 517.258 826.069 516.73 826.644 516.16C830.446 512.358 831.603 507.007 829.319 503.136C829.19 502.888 829.039 502.652 828.869 502.43C825.635 497.942 818.559 497.53 813.051 501.539C812.391 502.027 811.766 502.561 811.18 503.136C807.407 506.948 806.25 512.27 808.504 516.16Z" fill="white"/>
<path d="M785.553 540.18C785.574 542.779 787.687 544.874 790.286 544.874H838.306C835.984 540.954 837.14 535.662 840.952 531.86H795.872C791.595 531.861 787.722 534.391 786.004 538.308C785.729 538.896 785.576 539.532 785.553 540.18Z" fill="#3FBDF1"/>
<path d="M838.296 544.874H860.836C865.106 544.878 868.976 542.361 870.704 538.455C870.975 537.858 871.118 537.21 871.126 536.554C871.128 535.308 870.634 534.113 869.753 533.232C868.873 532.351 867.677 531.857 866.431 531.86H840.942C837.12 535.662 835.973 540.984 838.296 544.874Z" fill="#D7E8F0"/>
<path d="M838.296 544.874C838.397 545.132 838.535 545.373 838.707 545.59C841.951 550.078 849.027 550.49 854.524 546.481C855.191 545.998 855.817 545.46 856.396 544.874C860.169 541.072 861.296 535.75 859.072 531.86C858.946 531.609 858.799 531.369 858.631 531.144C855.357 526.685 848.282 526.244 842.784 530.282C842.128 530.757 841.512 531.285 840.942 531.86C837.12 535.662 835.973 540.984 838.296 544.874Z" fill="white"/>
<path d="M822.303 573.392H851.046C855.319 573.394 859.19 570.873 860.915 566.963C861.185 566.376 861.329 565.738 861.336 565.092C861.325 562.483 859.211 560.373 856.603 560.368H824.978C827.232 564.259 826.076 569.58 822.303 573.392H822.303Z" fill="#3FBDF1"/>
<path d="M775.713 568.718C775.724 571.306 777.828 573.398 780.417 573.392H822.302C826.075 569.58 827.202 564.259 824.977 560.368H786.003C781.725 560.369 777.853 562.899 776.134 566.816C775.865 567.415 775.722 568.062 775.713 568.718Z" fill="#D7E8F0"/>
<path d="M804.163 573.392C804.292 573.64 804.443 573.876 804.613 574.098C807.847 578.586 814.923 578.998 820.431 574.99C821.091 574.501 821.716 573.968 822.302 573.392C826.075 569.58 827.202 564.259 824.978 560.368C824.849 560.117 824.698 559.877 824.527 559.653C821.264 555.194 814.188 554.811 808.68 558.79C808.029 559.271 807.413 559.798 806.838 560.368C803.036 564.17 801.84 569.521 804.163 573.392Z" fill="white"/>
<path d="M636.475 707.897H665.218C669.491 707.9 673.362 705.378 675.087 701.468C675.754 700.014 675.627 698.319 674.752 696.98C673.876 695.641 672.374 694.845 670.775 694.873H639.16C641.404 698.764 640.248 704.085 636.475 707.897H636.475Z" fill="#3FBDF1"/>
<path d="M522.363 703.223C522.366 704.465 522.862 705.655 523.742 706.532C524.623 707.409 525.815 707.9 527.057 707.897H636.474C640.247 704.085 641.374 698.764 639.15 694.873H532.653C528.376 694.874 524.503 697.404 522.785 701.321C522.516 701.92 522.372 702.567 522.363 703.223Z" fill="#D7E8F0"/>
<path d="M618.335 707.897C618.464 708.145 618.615 708.381 618.785 708.603C622.019 713.101 629.095 713.503 634.603 709.494C635.263 709.006 635.888 708.472 636.474 707.897C640.247 704.085 641.374 698.763 639.15 694.873C639.021 694.622 638.87 694.382 638.699 694.157C635.426 689.698 628.35 689.316 622.852 693.295C622.201 693.776 621.585 694.303 621.01 694.873C617.208 698.675 616.051 704.026 618.335 707.897Z" fill="white"/>
<path d="M103.296 849.056C99.6467 847.617 96.1174 845.89 92.7416 843.892C70.0742 830.319 55.3056 799.88 59.8038 773.675C62.048 760.67 70.5152 751.605 81.4128 744.765C89.0274 740.041 97.2202 736.18 104.021 730.349C126.659 711.014 108.549 680.937 121.083 657.829C136.322 629.801 160.822 613.366 193.103 614.435C208.597 614.944 228.717 618.502 241.368 607.163C248.013 601.283 249.404 591.699 251.923 583.702C254.762 574.684 257.13 565.525 259.018 556.262C260.715 547.481 263.911 539.057 268.465 531.36C273.395 523.011 280.348 516.038 288.683 511.084C304.363 502.038 326.227 501.205 341.985 510.506C344.229 511.84 346.353 513.364 348.335 515.063C362.918 527.567 369.895 548.628 369.562 567.404" stroke="black" stroke-width="4.82"/>
<path d="M339.946 544.423C340.76 549.951 344.121 555.047 350.089 556.575C356.832 558.29 360.409 564.856 362.31 571.452C365.012 581.128 364.32 591.437 360.35 600.666C356.665 609.348 350.099 619.286 338.996 620.844C318.68 623.784 308.567 615.179 308.567 615.179" stroke="black" stroke-width="4.82"/>
<circle cx="323.022" cy="570.462" r="3.4888" fill="black"/>
<circle cx="353.706" cy="568.149" r="3.4888" fill="black"/>
<path d="M314.927 831.485C320.004 834.602 315.907 839.737 312.223 841.471C305.892 844.411 297.709 844.931 290.81 845.754C238.35 851.928 220.838 923.938 187.91 937.325C154.982 950.712 66.615 960.492 109.715 810.768C142.898 695.54 222.905 664.111 256.353 651.704C259.953 650.381 263.468 648.836 266.878 647.079C286.155 637.063 295.18 626.342 298.013 612.514C298.013 612.514 298.013 612.514 298.013 612.455C300.463 600.587 298.816 589.69 296.415 583.388C295.038 580.06 293.969 576.612 293.22 573.089C291.437 563.063 299.179 564.474 320.915 565.67C330.892 566.258 336.536 561.75 338.967 556.007C339.205 555.509 339.399 554.991 339.545 554.459C340.568 551.207 340.689 547.739 339.898 544.424" stroke="black" stroke-width="4.82"/>
<path d="M338.055 571.305C338.055 571.305 341.72 584.702 341.348 586.681C340.975 588.661 336.281 587.132 336.281 587.132" stroke="black" stroke-width="4.82"/>
<path d="M335.527 599.401C328.5 603.184 320.376 600.803 317.201 594.501" stroke="black" stroke-width="4.82"/>
<ellipse cx="317.706" cy="573.153" rx="16.2974" ry="15.9054" transform="rotate(-43.35 317.706 573.153)" stroke="black" stroke-width="4.82"/>
<ellipse cx="358.406" cy="569.437" rx="16.2974" ry="15.9054" transform="rotate(-43.35 358.406 569.437)" stroke="black" stroke-width="4.82"/>
<path fill-rule="evenodd" clip-rule="evenodd" d="M357.488 556.007C357.91 555.948 358.331 555.948 358.743 555.948V555.86C365.729 555.833 371.518 561.273 371.924 568.247C372.374 575.744 366.799 582.247 359.321 582.947C358.9 583.006 358.478 583.006 358.067 583.006C351.11 583.037 345.332 577.648 344.876 570.707C344.441 563.212 350.015 556.717 357.488 556.007ZM369.572 568.365C369.213 562.658 364.461 558.224 358.743 558.261V558.31H357.704C351.479 558.896 346.845 564.32 347.238 570.56C347.646 576.228 352.384 580.606 358.067 580.566H359.105C365.31 579.98 369.937 574.587 369.572 568.365Z" fill="white"/>
<path d="M333.782 571.697L342.328 570.913" stroke="black" stroke-width="4.82"/>
<path fill-rule="evenodd" clip-rule="evenodd" d="M316.759 559.31C317.191 559.27 317.622 559.251 318.053 559.251V559.339C325.179 559.308 331.096 564.831 331.557 571.942C332.025 579.63 326.31 586.303 318.641 587.024C318.21 587.083 317.779 587.083 317.357 587.083C310.23 587.114 304.309 581.592 303.843 574.48C303.321 566.757 309.052 560.026 316.759 559.31ZM329.205 572.059C328.851 566.176 323.947 561.604 318.053 561.662V561.613C317.693 561.609 317.333 561.626 316.975 561.662C310.585 562.263 305.818 567.817 306.195 574.225C306.555 580.111 311.46 584.685 317.357 584.633H318.425C324.82 584.031 329.588 578.471 329.205 572.059Z" fill="white"/>
<path d="M283.156 664.562C278.844 660.063 275.1 653.448 272.64 643.874" stroke="black" stroke-width="4.82"/>
<path d="M323.022 664.444L327.775 643.874L332.94 621.706" stroke="black" stroke-width="4.82"/>
<ellipse cx="328.104" cy="743.426" rx="16.562" ry="14.6412" transform="rotate(-78.48 328.104 743.426)" fill="#D7E8F0"/>
<path fill-rule="evenodd" clip-rule="evenodd" d="M645.599 892.176L637.563 937.08C637.097 939.682 634.835 941.577 632.192 941.578H590.16C587.488 941.58 585.207 939.648 584.77 937.011L577.42 892.176L645.599 892.176Z" stroke="#CCDDE2" stroke-width="4.82"/>
<path fill-rule="evenodd" clip-rule="evenodd" d="M653.243 887.159C653.009 889.99 650.645 892.171 647.804 892.176H575.284C572.484 892.176 570.136 890.061 569.845 887.276C569.699 885.744 570.206 884.222 571.241 883.083C572.277 881.945 573.745 881.297 575.284 881.298H647.804C649.321 881.3 650.769 881.932 651.8 883.044C652.832 884.155 653.355 885.646 653.243 887.159Z" stroke="#CCDDE2" stroke-width="4.82"/>
<path d="M613.827 881.22C613.827 878.917 619.707 850.232 614.807 824.801C612.141 810.846 606.261 797.881 594.423 790.776" stroke="#CCDDE2" stroke-width="4.82"/>
<path d="M614.827 824.841C614.827 824.841 616.17 805.515 632.869 804.182" stroke="#CCDDE2" stroke-width="4.82"/>
<path d="M616.62 854.329C621.371 851 627.094 849.345 632.888 849.625" stroke="#CCDDE2" stroke-width="4.82"/>
<path d="M616.62 840.599C616.62 840.599 604.488 826.232 585.104 837.6" stroke="#CCDDE2" stroke-width="4.82"/>
<path fill-rule="evenodd" clip-rule="evenodd" d="M608.065 834.817C608.065 834.817 580.742 809.866 575.392 843.637C575.392 843.637 583.085 848.645 594.443 843.637C605.801 838.629 608.065 834.817 608.065 834.817Z" stroke="#CCDDE2" stroke-width="4.82"/>
<path fill-rule="evenodd" clip-rule="evenodd" d="M620.834 810.062C620.834 810.062 619.854 798.831 632.869 795.156C645.883 791.481 653.262 806.858 653.262 806.858C653.262 806.858 643.217 817.961 620.834 810.062V810.062Z" stroke="#CCDDE2" stroke-width="4.82"/>
<path d="M623.852 849.615C623.852 849.615 623.401 838.257 638.552 840.599C653.703 842.941 656.192 855.867 656.192 855.867C656.192 855.867 631.378 864.962 623.852 850.811" stroke="#CCDDE2" stroke-width="4.82"/>
<path fill-rule="evenodd" clip-rule="evenodd" d="M605.595 801.321C605.595 802.124 594.207 800.341 593.482 800.086C587.965 798.439 584.045 794.617 581.467 789.561C580.673 787.993 576.077 779.202 577.381 777.673C577.42 777.673 604.487 768.951 605.595 801.321Z" stroke="#CCDDE2" stroke-width="4.82"/>
<path fill-rule="evenodd" clip-rule="evenodd" d="M872.753 804.368C864.207 829.854 850.059 853.101 831.348 872.4C795.961 909.424 742.776 935.943 675.528 942.146V804.368H872.753Z" stroke="#CCDDE2" stroke-width="4.82"/>
<path fill-rule="evenodd" clip-rule="evenodd" d="M831.348 872.4C795.961 909.424 742.776 935.943 675.528 942.146V872.4H831.348Z" stroke="#CCDDE2" stroke-width="4.82"/>
<rect x="790.972" y="829.79" width="19.9038" height="19.9038" rx="9.9519" stroke="#CCDDE2" stroke-width="4.82"/>
</svg>
