<svg width="1000" height="1000" viewBox="0 0 1000 1000" fill="none" xmlns="http://www.w3.org/2000/svg">
<path d="M763.189 714.258L761.454 730.82C756.94 741.606 752.428 752.386 747.92 763.16C746.346 766.942 744.765 770.719 743.177 774.488C742.457 776.252 741.436 777.877 740.159 779.29C740.03 779.483 739.821 779.605 739.59 779.624C739.208 779.624 739.071 779.114 739.042 778.732C738.824 774.647 738.337 770.581 737.581 766.56C733.358 747.146 710.818 740.032 693.138 740.473C686.065 740.58 679.096 742.194 672.696 745.206C663.464 749.675 659.867 762.101 659.377 762.562L658.985 764.159L652.655 790.531C651.322 796.411 650.303 799.518 644.873 801.086C644.697 801.144 639.287 804.026 639.111 804.026C637.014 804.614 642.757 803.349 640.483 802.967L633.28 801.84L630.213 801.135L585.456 790.541C587.191 790.835 588.964 791.158 590.768 791.521L601.156 794L598.412 780.829C591.267 739.826 603.106 702.625 623.274 682.427C628.586 677.116 631.222 675.753 637.416 672.216L640.895 680.457C640.895 680.457 676.488 691.071 684.877 658.505C688.268 658.799 694.785 658.75 698.146 659.485C715.668 663.159 731.493 672.499 743.177 686.063C744.206 687.239 745.216 688.454 746.215 689.689L746.744 690.336C747.362 691.11 748.018 691.904 748.636 692.698L749.077 693.325C754.2 700.011 758.912 707.001 763.189 714.258Z" fill="#353642"/>
<path d="M340.26 542.836C345.905 514.612 369.875 487.27 438.338 481.007C590.513 467.101 508.251 425.147 557.8 379.234C607.349 333.321 794.696 408.86 745.686 526.832C696.676 644.805 858.464 513.867 926.986 663.297C936.912 684.982 941.691 708.668 940.951 732.505C940.086 757.691 933.6 782.365 921.968 804.721C900.085 847.469 859.434 885.551 800.644 909.15C791.968 912.684 782.887 915.863 773.4 918.685" stroke="#CCDDE2" stroke-width="4.52"/>
<path d="M814.208 943.685H628.988L623.47 942.039C623.47 942.039 622.353 879.152 614.964 863.061L642.404 872.39L668.981 880.034C668.981 880.034 705.545 880.799 726.449 843.48C726.449 843.48 729.967 834.572 733.122 818.51C735.847 804.574 750.331 727.742 756.407 710.583C762.963 722.039 773.234 741.747 778.193 753.761C783.563 766.805 788.081 779.8 791.775 791.844C797.925 811.673 802.776 831.88 806.299 852.34C811.567 882.503 814.214 913.065 814.208 943.685Z" fill="#353642"/>
<path d="M822.303 774.958C821.117 788.806 811.728 791.06 811.728 791.06C803.79 795.754 791.599 790.707 789.139 781.907C789.103 781.813 789.083 781.713 789.081 781.613C787.121 774.076 783.299 764.394 778.163 753.8C768.265 729.849 755.398 705.702 738.895 686.602C727.21 673.038 711.385 663.699 693.864 660.024C693.805 660.024 693.776 659.965 693.717 659.965C670.481 652.968 659.172 638.68 654.272 624.979C654.272 624.979 654.272 624.979 654.272 624.92C652.175 616.267 650.038 607.829 651.185 602.723C653.145 593.776 654.125 584.103 651.685 582.143C648.617 579.576 643.07 581.477 628.958 584.319C616.738 586.828 610.221 585.407 608.751 577.939C608.519 576.781 608.4 575.602 608.398 574.421C608.339 575.166 605.458 572.206 605.321 572.912C604.4 576.724 602.557 578.253 598.539 579.929C592.571 582.408 590.131 591.983 589.249 598.362C588.328 605.154 591.385 614.523 593.806 620.902C590.709 617.365 587.161 617.776 581.615 619.922C580.223 620.452 576.715 620.305 573.941 619.334C574.333 618.998 574.795 618.754 575.294 618.619C576.185 618.325 569.717 615.111 570.658 614.905C580.076 612.778 585.358 604.928 584.241 598.019C581.468 580.624 585.162 560.162 596.912 546.609C609.868 531.703 631.007 528.606 648.901 535.427C662.955 540.768 676.243 551.724 681.114 566.336C681.114 566.395 681.114 566.454 681.173 566.512C681.792 568.371 682.267 570.275 682.594 572.206C684.387 583.074 680.555 594.09 678.429 604.83C677.664 608.701 679.605 612.925 680.016 615.993C682.378 634.417 703.644 639.62 720.471 647.441C755.839 663.915 784.72 692.08 804.143 726.331C817.04 749.008 821.646 764.472 822.303 774.958Z" fill="#3FBDF1"/>
<path d="M635.847 668.56C635.465 668.766 635.083 668.972 634.73 669.207C628.379 672.848 622.539 677.316 617.365 682.496C597.206 702.693 585.368 739.894 592.512 780.897L595.256 794" stroke="black" stroke-width="4.52"/>
<path d="M814.207 943.685C814.211 913.075 811.565 882.523 806.299 852.369C802.776 831.91 797.925 811.702 791.775 791.874C788.08 779.829 783.563 766.835 778.192 753.791C773.205 741.585 767.444 729.709 760.944 718.236C754.642 707.003 747.268 696.405 738.924 686.592C727.239 673.029 711.414 663.689 693.893 660.015C690.532 659.302 687.132 658.792 683.71 658.486" stroke="black" stroke-width="4.52"/>
<path d="M451.98 677.292L451.48 677.204C439.318 675.166 426.955 679.448 418.66 688.572L385.144 725.087L381.224 729.399C380.98 729.663 380.751 729.941 380.538 730.232" stroke="black" stroke-width="4.52"/>
<path d="M403.578 739.767L421.972 719.363L422.002 719.334" stroke="black" stroke-width="4.52"/>
<path d="M563.592 845.156L650.116 875.644C666.977 881.586 685.588 879.901 701.108 871.028C716.628 862.155 727.522 846.972 730.956 829.427L751.428 724.92C753.545 714.076 751.145 702.839 744.784 693.805C743.905 692.546 742.949 691.341 741.922 690.199" stroke="black" stroke-width="4.52"/>
<path d="M506.331 840.942C495.316 848.381 487.221 870.97 482.919 885.797C481.404 890.905 476.702 894.401 471.374 894.382C469.618 894.382 467.883 894 466.288 893.265C461.251 890.903 458.494 885.393 459.624 879.946C466.827 844.725 492.248 775.194 579.576 790.521C581.32 790.815 583.094 791.139 584.888 791.501L595.256 794L624.333 801.086L632.173 802.977C635.147 803.699 638.263 803.587 641.179 802.654C641.359 802.619 641.536 802.569 641.708 802.507C647.166 800.635 651.288 796.102 652.635 790.492L659.25 762.974L659.632 761.376L668.295 725.4" stroke="black" stroke-width="4.52"/>
<path d="M463.74 728.174H434.105C427.069 728.174 421.365 722.47 421.365 715.434C421.365 708.398 427.069 702.694 434.105 702.694H476.088" stroke="black" stroke-width="4.52"/>
<path d="M440.994 728.164C440.572 733.358 438.593 737.2 435.672 739.855C428.146 746.715 414.357 745.931 404.763 741.237" stroke="black" stroke-width="4.52"/>
<path d="M385.183 725.077C376.686 714.807 378.421 700.881 385.016 690.12C403.724 659.584 446.472 665.444 474.196 678.135C496.658 688.386 516.336 703.791 535.495 719.158C544.854 726.665 554.047 734.485 562.935 742.678C566.241 745.669 570.736 746.98 575.132 746.235C579.528 745.489 583.34 742.77 585.475 738.856C590.375 729.81 595.677 719.942 596.677 717.208" stroke="black" stroke-width="4.52"/>
<path d="M435.683 739.855C435.683 739.855 479.89 763.836 512.73 798.293" stroke="black" stroke-width="4.52"/>
<path d="M495.541 853.947C490.641 862.316 494.855 874.605 504.116 877.545C515.943 881.362 528.448 882.615 540.797 881.22C554.272 879.652 563.23 868.529 569.129 855.789C569.993 853.873 570.001 851.679 569.153 849.755C568.304 847.832 566.678 846.36 564.68 845.705C560.983 844.488 556.971 846.319 555.468 849.909C553.508 854.437 550.48 860.101 546.462 862.649" stroke="black" stroke-width="4.52"/>
<path d="M518.62 852.379C518.62 852.379 506.517 865.393 516.062 879.172C516.481 879.751 516.976 880.272 517.532 880.721" stroke="black" stroke-width="4.52"/>
<path d="M534.584 854.525C534.584 854.525 523.392 879.711 537.749 881.553" stroke="black" stroke-width="4.52"/>
<path d="M931.925 943.705H238.83" stroke="black" stroke-width="4.52"/>
<path fill-rule="evenodd" clip-rule="evenodd" d="M511.495 896.244H442.376C440.923 909.758 429.508 919.997 415.916 919.979H183.597C183.624 933.061 194.222 943.659 207.303 943.686H511.495C524.598 943.68 535.231 933.082 535.28 919.979V904.045C535.28 899.715 531.77 896.205 527.44 896.205L511.495 896.244Z" stroke="black" stroke-width="4.52"/>
<path fill-rule="evenodd" clip-rule="evenodd" d="M404.763 741.237C406.8 744.055 408.265 747.244 409.075 750.625L441.817 887.178C442.54 890.143 442.73 893.213 442.376 896.243C440.922 909.757 429.507 919.997 415.916 919.979H179.285C166.983 919.977 156.288 911.539 153.423 899.576L120.74 763.032C118.836 755.111 120.669 746.754 125.713 740.357C130.757 733.96 138.455 730.228 146.602 730.231H383.213C391.083 730.216 398.55 733.712 403.578 739.767L404.763 741.237Z" stroke="black" stroke-width="4.52"/>
<path fill-rule="evenodd" clip-rule="evenodd" d="M362.947 566.16C364.603 567.816 366.191 569.521 367.7 571.295C377.988 587.375 383.431 606.076 383.38 625.166C383.38 655.475 358.809 680.046 328.5 680.046H298.894C291.167 680.051 284.905 686.313 284.9 694.04V694.687C284.895 700.314 288.467 705.323 293.788 707.152C293.788 707.281 293.802 707.41 293.817 707.542C293.832 707.682 293.847 707.825 293.847 707.976L263.82 708.74H263.516C255.779 708.74 249.503 702.473 249.492 694.736C249.492 687.007 243.227 680.741 235.498 680.741H113.88C99.159 680.786 85.0428 674.889 74.7289 664.385C70.1858 656.226 67.8073 647.039 67.8199 637.7V636.984C67.8069 610.401 78.3607 584.902 97.1572 566.104C115.954 547.306 141.451 536.749 168.035 536.76H292.083C318.675 536.744 344.176 547.324 362.947 566.16ZM130.711 614.553C134.426 623.519 143.178 629.364 152.884 629.36C166.12 629.349 176.848 618.625 176.865 605.389C176.872 595.683 171.031 586.929 162.066 583.21C153.101 579.491 142.778 581.541 135.914 588.402C129.049 595.264 126.996 605.586 130.711 614.553ZM231.157 629.36C221.452 629.356 212.706 623.506 208.997 614.539C205.288 605.572 207.347 595.253 214.213 588.395C221.079 581.538 231.4 579.492 240.363 583.212C249.326 586.932 255.165 595.685 255.157 605.389C255.157 611.752 252.627 617.853 248.125 622.35C243.624 626.846 237.519 629.368 231.157 629.36ZM281.734 605.35C281.724 618.6 292.456 629.349 305.705 629.36C312.069 629.37 318.176 626.85 322.68 622.353C327.184 617.856 329.715 611.753 329.715 605.389C329.726 592.14 318.994 581.39 305.744 581.379C292.495 581.368 281.745 592.1 281.734 605.35Z" fill="#D7E8F0"/>
<path fill-rule="evenodd" clip-rule="evenodd" d="M383.38 625.176C383.38 655.485 358.809 680.056 328.5 680.056H298.914C291.191 680.061 284.93 686.317 284.919 694.04V694.687C284.915 700.314 288.486 705.323 293.808 707.153C295.175 707.628 296.614 707.866 298.061 707.858L293.867 707.976L263.82 708.74H263.497C255.763 708.74 249.489 702.479 249.473 694.746C249.473 687.017 243.207 680.751 235.478 680.751H113.88C83.5706 680.751 59 656.181 59 625.871V625.156C59.0026 598.59 69.5582 573.114 88.3448 554.331C107.131 535.548 132.61 524.997 159.176 525H283.185C338.511 525.005 383.364 569.849 383.38 625.176V625.176Z" stroke="black" stroke-width="4.52"/>
<path d="M693.864 659.985C693.805 659.985 693.775 659.926 693.717 659.926C670.481 652.929 659.172 638.64 654.272 624.94C654.272 624.94 654.272 624.94 654.272 624.881C650.44 614.199 650.528 603.86 651.91 597.686C652.737 594.416 653.262 591.076 653.478 587.71C653.801 578.174 646.804 580.507 626.792 584.495C617.6 586.357 611.72 582.869 608.78 577.91C608.494 577.478 608.245 577.022 608.035 576.548C606.664 573.661 606.095 570.459 606.389 567.277" stroke="black" stroke-width="4.52"/>
<path d="M594.874 622.196C594.521 621.697 594.158 621.216 593.805 620.834C590.709 617.296 587.161 617.708 581.614 619.854C580.223 620.383 576.714 620.236 573.941 619.266C571.608 618.433 569.864 616.993 570.658 614.837C571.071 613.938 571.879 613.283 572.843 613.063C573.767 612.83 574.703 612.643 575.646 612.504C585.162 610.378 583.035 599.362 581.879 592.453C579.076 575.068 582.8 554.606 594.668 541.052C607.741 526.147 629.125 523.04 647.186 529.861C663.072 535.858 678.017 548.873 681.114 566.268C681.114 566.327 681.114 566.385 681.172 566.444C681.231 566.503 681.172 566.591 681.172 566.65C683.005 577.518 681.172 589.298 679.046 600.048C677.772 606.418 678.252 611.622 680.026 615.924C685.582 630.007 704.33 634.917 719.441 641.885C755.202 658.358 784.337 686.524 803.976 720.775C819.48 747.94 823.155 764.649 822.302 774.959C821.116 788.806 811.728 791.06 811.728 791.06C803.79 795.754 791.589 790.707 789.139 781.907C789.103 781.813 789.083 781.714 789.08 781.613C787.12 774.077 783.298 764.394 778.163 753.801" stroke="black" stroke-width="4.52"/>
<path d="M606.35 567.277C606.35 572.52 603.88 577.694 598.51 579.899C592.473 582.388 590.023 588.945 589.141 595.324C587.908 604.666 589.918 614.148 594.835 622.186C599.392 629.752 606.81 638.092 617.316 638.092C636.563 638.092 644.815 628.811 644.815 628.811" stroke="black" stroke-width="4.52"/>
<circle cx="626.332" cy="595.06" r="3.2732" fill="black"/>
<circle cx="597.539" cy="596.971" r="3.2732" fill="black"/>
<path d="M611.661 591.983C611.661 591.983 610.025 604.909 610.681 606.683C611.338 608.457 615.434 606.428 615.434 606.428" stroke="black" stroke-width="4.52"/>
<path d="M617.728 617.737C624.735 620.315 631.967 617.032 634.084 610.73" stroke="black" stroke-width="4.52"/>
<ellipse cx="630.795" cy="590.975" rx="14.9156" ry="15.2782" transform="rotate(-54.76 630.795 590.975)" stroke="black" stroke-width="4.52"/>
<ellipse cx="592.519" cy="592.898" rx="14.9156" ry="15.2782" transform="rotate(-54.76 592.519 592.898)" stroke="black" stroke-width="4.52"/>
<path fill-rule="evenodd" clip-rule="evenodd" d="M591.591 580.282H592.247C599.043 580.3 604.692 585.523 605.242 592.297C605.495 595.628 604.387 598.92 602.171 601.42C599.955 603.921 596.82 605.416 593.482 605.566H592.826C586.029 605.547 580.381 600.325 579.831 593.551C579.578 590.219 580.686 586.928 582.902 584.427C585.118 581.927 588.253 580.431 591.591 580.282ZM603.027 592.463C602.596 586.833 597.894 582.49 592.247 582.506V582.497H591.699C588.938 582.62 586.346 583.858 584.515 585.927C582.703 587.973 581.8 590.669 582.016 593.394C582.442 599.028 587.146 603.377 592.796 603.361H593.345C596.11 603.244 598.707 602.006 600.538 599.931C602.349 597.884 603.248 595.187 603.027 592.463Z" fill="white"/>
<path d="M615.679 591.777L607.643 592.188" stroke="black" stroke-width="4.52"/>
<ellipse opacity="0.53" cx="630.795" cy="590.975" rx="12.6322" ry="12.936" transform="rotate(-54.76 630.795 590.975)" fill="white"/>
<ellipse opacity="0.53" cx="592.519" cy="592.899" rx="12.6322" ry="12.936" transform="rotate(-54.76 592.519 592.899)" fill="white"/>
<path d="M623.049 638.092L640.895 680.487C640.895 680.487 675.322 689.748 683.691 657.172" stroke="black" stroke-width="4.52"/>
<ellipse cx="275.803" cy="830.393" rx="25.5878" ry="28.7532" transform="rotate(-17.5 275.803 830.393)" fill="#D7E8F0"/>
<path d="M618.286 943.685C617.904 909.179 611.818 875.085 609.015 861.169" stroke="black" stroke-width="4.52"/>
</svg>
